<svg id="Layer_1" data-name="Layer 1" xmlns="http://www.w3.org/2000/svg" viewBox="0 0 1000 1000"><title>All Saints Icon</title><path d="M393,324.21a22.46,22.46,0,0,0-8.79-7.21c-4.12-1.91-2.8-1.63-7.41-1.87-.95-.05-1.91,0-2.87,0v0c-1.62.06-3.25.07-4.88.19A38.15,38.15,0,0,0,359.8,317a9.39,9.39,0,0,0-1.83.82,3.81,3.81,0,0,0-1,1,1.25,1.25,0,0,0,.66,1.86,11.7,11.7,0,0,0,2.28.25,19,19,0,0,1,7.79,1.72,51.55,51.55,0,0,1,4.88,2.43c1.67.94,3.27,2,4.86,3.06a26.91,26.91,0,0,0,11.79,4.23,19.06,19.06,0,0,0,7.13-.46c1.73-.43,2-1.19.82-2.62C395.8,327.62,394.32,326,393,324.21Z"/><path d="M490.73,331.57c-.06,1.9,1,2.8,2.92,2.47a5.54,5.54,0,0,0,.55-.14,16.17,16.17,0,0,0,6.58-3.36,53.69,53.69,0,0,0,6-6.18,21.66,21.66,0,0,1,8.33-6.43,22,22,0,0,0,3.24-1.83,4.86,4.86,0,0,0,1.13-1.25,1,1,0,0,0-.45-1.47,4,4,0,0,0-1.07-.36,41.29,41.29,0,0,0-4.29-.25c-1.62,0-3.24.39-4.86.4a10,10,0,0,0-4.67,1.21c-1.19.61-2.37,1.24-3.51,1.93-2.21,1.34-4.37,2.75-6.58,4.09a10.61,10.61,0,0,0-2.41,2,3.66,3.66,0,0,0-1,3.16c.19,1.32.26,2.66.33,3.45C490.84,330.24,490.75,330.9,490.73,331.57Z"/><path d="M444.2,354.86a7,7,0,0,0,1.71,0,2.89,2.89,0,0,0,2.54-2.69c0-3.19-.84-6-3.57-8a18.27,18.27,0,0,0-10.11-3.48,20.49,20.49,0,0,0-6.77,1.09,4.33,4.33,0,0,0-2.3,1.62,2.52,2.52,0,0,0,.1,3.16,5,5,0,0,0,.61.61,5.82,5.82,0,0,1,2.07,3.65,9.19,9.19,0,0,0,2.37,4.5,5.16,5.16,0,0,0,3.74,1.82,10.86,10.86,0,0,0,5-.83c.52-.22,1-.49,1.54-.75A5.51,5.51,0,0,1,444.2,354.86Z"/><path d="M508.47,72H491.53C337,72,211.65,197.31,211.65,351.88V648.12C211.65,802.69,337,928,491.53,928h16.94c154.58,0,279.88-125.31,279.88-279.88V351.88C788.35,197.31,663.05,72,508.47,72ZM761.91,643.2c0,142.7-115.68,258.37-258.37,258.37h-7.08c-142.69,0-258.37-115.67-258.37-258.37V356.8c0-142.7,115.68-258.37,258.37-258.37h7.08c142.69,0,258.37,115.67,258.37,258.37Z"/><path d="M503.54,107.2h-7.08c-137.63,0-249.6,112-249.6,249.6V643.2c0,137.63,112,249.6,249.6,249.6h7.08c137.63,0,249.6-112,249.6-249.6V356.8C753.14,219.17,641.17,107.2,503.54,107.2ZM524.32,207a12.16,12.16,0,1,1-12.16,12.15A12.15,12.15,0,0,1,524.32,207ZM500,165a12.16,12.16,0,1,1-12.16,12.16A12.16,12.16,0,0,1,500,165Zm-24.31,42a12.16,12.16,0,1,1-12.16,12.15A12.15,12.15,0,0,1,475.69,207Zm62.85,628H457.92v-3.84c19.18-.82,34.45-18.27,37.94-35.72h7.36c3.37,16.88,17.74,33.77,36,35.62C539,832.43,538.78,833.73,538.54,835Zm-80.48-85.55h84C536.2,805,463.92,804.78,458.06,749.48ZM612.63,574.2c-.46,1-.87,2.12-1.33,3.17-1,2.18-2,4.35-3,6.53-.35.79-.68,1.58-1,2.37-1.28,3-2.52,6-3.85,9a73.38,73.38,0,0,0-4.15,13.42,56.52,56.52,0,0,0-1.46,8.48c-.09,1.24-.14,2.48-.21,3.72-.07,1-.1,2.1-.22,3.14a17.76,17.76,0,0,1-1.93,6.25,33,33,0,0,0-2.88,7.49c-.31,1.29-.88,2.53-1.25,3.82-.6,2.11-1.19,4.24-1.67,6.38a14.56,14.56,0,0,1-3.55,6.47,4.79,4.79,0,0,1-1.62,1.15A41.88,41.88,0,0,1,573.3,659c-1.7.21-3.41.37-5.13.55a48.3,48.3,0,0,1-9.36-1.48c-1-.22-2-.52-3-.83a14.23,14.23,0,0,1-1.86-.76,3.55,3.55,0,0,1-2.2-3.93,19,19,0,0,1,2.38-7.91,20.72,20.72,0,0,0,1.54-3.39,37.37,37.37,0,0,1,4.18-7.52A111.09,111.09,0,0,0,567,622.28c1.77-3.39,3.65-6.73,5.26-10.21a131.87,131.87,0,0,0,7.88-22.77c1-4,1.88-8,2.74-12a95.38,95.38,0,0,0,1.81-16,24,24,0,0,0-3.78-13.62c-1.14-1.88-2.3-3.76-3.4-5.66a5.88,5.88,0,0,1-.83-3.58,3.16,3.16,0,0,1,1.13-2.25,4.9,4.9,0,0,1,5.06-1.13,28.54,28.54,0,0,1,3.71,1.51,42.38,42.38,0,0,1,12.91,10.8c1.39,1.72,2.74,3.45,4.13,5.16a40,40,0,0,1,5.86,9.51c1.08,2.56,2.11,5.14,3.17,7.71A5.5,5.5,0,0,1,612.63,574.2ZM678.19,654a79.41,79.41,0,0,0-2,9,19.11,19.11,0,0,1-3.21,7.32,12.6,12.6,0,0,1-5.21,3.94,33.37,33.37,0,0,1-10.45,3,16.34,16.34,0,0,1-4.58.19,8.38,8.38,0,0,0-2.29,0,28.12,28.12,0,0,1-6.86-.41,9.36,9.36,0,0,1-5.55-3.35,4.15,4.15,0,0,1-.91-3.24,14.4,14.4,0,0,1,.43-2.25c.73-2.78,1.48-5.55,2.22-8.32a40.42,40.42,0,0,1,2.66-7c.82-1.73,1.55-3.5,2.35-5.24a10.62,10.62,0,0,1,.94-1.76,11.07,11.07,0,0,0,1.6-3.66,46.47,46.47,0,0,0,1.5-12.8c-.15-4.49-.39-9-.69-13.47a48.13,48.13,0,0,0-.82-6,186.9,186.9,0,0,0-5.39-20.84,17,17,0,0,0-1.6-3.68,12.19,12.19,0,0,1-1-2.07,49.15,49.15,0,0,0-3.38-7.29c-.83-1.51-1.7-3-2.54-4.5a63.32,63.32,0,0,0-8.9-12c-2.67-2.88-5.17-5.9-7.77-8.85a90.42,90.42,0,0,0-9.47-9.2,71.83,71.83,0,0,1-9.92-10,35.17,35.17,0,0,0-3.92-4.17,15.92,15.92,0,0,1-4.53-7.2,27.94,27.94,0,0,1-.81-13.91c.4-2.06,1-4.1,1.55-6.12a48.68,48.68,0,0,0,1.44-5,7.29,7.29,0,0,1,1-2.06,26.86,26.86,0,0,0,3.07-8.31,21.08,21.08,0,0,0,.09-7.43,19,19,0,0,0-.62-2.5,4.79,4.79,0,0,0-2.3-2.84,11.73,11.73,0,0,0-8.83-1.46,8.77,8.77,0,0,0-4.43,2.52,20.2,20.2,0,0,0-1.79,2.24,8.44,8.44,0,0,0-1.4,6.83c.59,2.72,1.19,5.43,1.83,8.13a34.27,34.27,0,0,1,.87,9.41,22.82,22.82,0,0,1-4.37,12.86,24.29,24.29,0,0,1-2.23,2.62,62,62,0,0,1-10.31,8.23,20.85,20.85,0,0,1-5.19,2.43A135.49,135.49,0,0,1,539.72,530a69.21,69.21,0,0,1-20.32.64,41.89,41.89,0,0,1-6.46-1.35c-2.85-.82-5.64-1.82-8.45-2.8a44.05,44.05,0,0,1-7.32-3.29c-1.5-.85-3.1-1.51-4.65-2.26a4.82,4.82,0,0,0-2.52-.38,9.15,9.15,0,0,0-7.37,4.35,18.73,18.73,0,0,0-2.29,5.22,58,58,0,0,0-2,14.47c-.13,6.24-1.27,12.37-2.25,18.52-1.11,7-2.53,13.94-3.94,20.88-1,4.88-1.83,9.79-2.73,14.68a11.14,11.14,0,0,0-.23,1.71c-.19,4.87-.67,9.75.05,14.62a21.87,21.87,0,0,1,.11,2.3,75.9,75.9,0,0,0,1.9,15.08c.42,1.76.57,3.59.86,5.38.86,5.2,1.74,10.39,2.58,15.59.5,3.12,1,6.24,1.38,9.38a49.11,49.11,0,0,1-.61,14.86c-.7,3.87-1.88,7.62-2.71,11.45a3.76,3.76,0,0,1-1.14,2c-2.25,2.09-4.55,4-7.63,4.93s-6.33,1.47-9.51,2.16a17.16,17.16,0,0,1-4.84.34,10.82,10.82,0,0,1-2-.34,27.37,27.37,0,0,1-8.68-4.36,2.52,2.52,0,0,1-1.14-2.46c.11-1.05.19-2.1.4-3.13a45,45,0,0,1,3.15-9.22,55.62,55.62,0,0,0,5.2-22.5,213,213,0,0,0-.78-24.1c-.5-4.76-1-9.53-1.73-14.26a34.23,34.23,0,0,0-2.71-9.65c-1-2.16-1.72-4.46-2.6-6.69a136.67,136.67,0,0,1-7.65-27.92,66.14,66.14,0,0,1-1-16c.21-2.58.19-5.17.32-7.75.12-2.3.24-4.59.45-6.88a19.55,19.55,0,0,0-1.07-8.2,16.54,16.54,0,0,0-2.78-5,8.57,8.57,0,0,0-3.08-2.53,30.45,30.45,0,0,0-3.19-1.3c-1.63-.56-3.28-1-4.93-1.55a26.38,26.38,0,0,1-6.55-2.88,10.27,10.27,0,0,0-1.26-.69,77.29,77.29,0,0,1-10.38-6.13,19.18,19.18,0,0,0-5-2.71,19,19,0,0,0-2.8-.55,2.92,2.92,0,0,0-1.12.18,1.36,1.36,0,0,0-1,1.54,7.77,7.77,0,0,0,.53,1.63c.59,1.2,1.18,2.41,1.88,3.55,1.59,2.61,3.24,5.2,4.89,7.78a30.77,30.77,0,0,0,6.78,7.74,2.42,2.42,0,0,1,.42,3.55,3.56,3.56,0,0,1-1,1,17.74,17.74,0,0,0-3.47,3,7.17,7.17,0,0,1-2.34,1.62c-4.68,2-8.9,4.86-13.19,7.57a22.87,22.87,0,0,0-3.21,2.42c-3.47,3.15-7.24,6-10.91,8.87a9.46,9.46,0,0,0-1.32,1.11,7.63,7.63,0,0,0-1.11,1.64,4.57,4.57,0,0,0-.14,3.88,28.17,28.17,0,0,0,4.71,8.49,89.83,89.83,0,0,0,14.37,14c1.6,1.21,3.11,2.55,4.68,3.81,3.33,2.65,3.33,2.66,7.25,3.91,1.46.46,2.95.82,4.42,1.27,2.37.73,4.75,1.48,7.11,2.27a14.48,14.48,0,0,1,4.49,2.5,36.19,36.19,0,0,1,6.45,6.52,8,8,0,0,1,1.65,4.5,27.43,27.43,0,0,1-4.38,17c-.78,1.2-1.69,2.32-2.51,3.5a4.29,4.29,0,0,1-3.68,1.86,7.36,7.36,0,0,1-4.37-1.14c-2.48-1.63-5-3.25-7.43-4.9a38.74,38.74,0,0,0-5.93-3.49,21.84,21.84,0,0,1-6.23-4.57,56.91,56.91,0,0,1-4.11-4.4,76,76,0,0,0-9.79-9.69c-1.18-1-2.3-2-3.47-3s-2.22-1.81-3.33-2.72c-.44-.36-.9-.71-1.31-1.11a50.4,50.4,0,0,0-9.51-6.9c-1.83-1-3.62-2.16-5.43-3.24a95.75,95.75,0,0,0-12.49-6.45,50.78,50.78,0,0,1-8.54-4.72c-1.83-1.22-2.82-3.09-3.8-5a22.42,22.42,0,0,1-1.7-3.94c-1-3.22-1.88-6.47-1.45-9.88a59.74,59.74,0,0,1,1-6.22,17.92,17.92,0,0,1,3.74-7.37,16.1,16.1,0,0,1,2.06-2,9.35,9.35,0,0,1,1.66-1.13c4.58-2.36,8.24-5.89,11.9-9.4s7.48-7.14,11.22-10.72c1.79-1.72,3.61-3.43,5.35-5.21,1.46-1.51,2.9-3.07,4.21-4.71,2.82-3.51,5.57-7.07,8.32-10.63a58,58,0,0,0,4.8-7.15,7.35,7.35,0,0,1,.94-1.45,5.1,5.1,0,0,0,1.13-4c-.21-3.63-.45-7.26-.62-10.89-.26-5.45-.72-10.9-.49-16.36a98.86,98.86,0,0,1,.82-11.16,73.48,73.48,0,0,1,6.26-21.13c1.13-2.32,2.22-4.67,3.32-7a113.83,113.83,0,0,0,8.46-25.88,60.64,60.64,0,0,0,.77-18.58c-.71-6.86-1.38-13.72-1.65-20.61-.08-2.2-.07-4.41-.06-6.61a29.94,29.94,0,0,1,1.11-8.52,13.85,13.85,0,0,0,.28-4.84,3.76,3.76,0,0,0-4.71-3.36l-.28.08c-2.63,1-5.45,1-8.19,1.36a5.83,5.83,0,0,1-1.72,0q-4.68-.75-9.34-1.57a16.05,16.05,0,0,1-2.49-.68,77.49,77.49,0,0,1-16.81-8,9,9,0,0,1-1.58-1.23c-1.64-1.74-3.26-3.5-4.84-5.3a5.53,5.53,0,0,1-1.24-4,4.6,4.6,0,0,1,2.34-4,59.06,59.06,0,0,1,10.77-5.35,105.87,105.87,0,0,1,16.16-4,39.78,39.78,0,0,1,8.58-.43,57.33,57.33,0,0,1,13.93,1.78c2.66.77,5.27,1.7,7.89,2.61a33.38,33.38,0,0,1,4.09,2.07,11.31,11.31,0,0,0,5.49,1.48,6.08,6.08,0,0,0,4.47-1.59c3.13-3.14,7.17-4.7,11.1-6.47a35.37,35.37,0,0,1,11.38-2.83,103.09,103.09,0,0,1,12.91-.65c1.33.05,2.67.14,4,.25a28.41,28.41,0,0,1,8.84,2.37,114,114,0,0,1,12.13,5.9,9.79,9.79,0,0,0,2.36,1,6.62,6.62,0,0,0,4-.24,9.13,9.13,0,0,0,1.33-.56c4.42-2.51,9.33-3.4,14.27-4.08,3.22-.44,6.48-.58,9.73-.78a28.17,28.17,0,0,1,3.43.19c1.72.11,3.44.28,5.16.33a29.49,29.49,0,0,1,5.38.81,7.41,7.41,0,0,1,4.94,4.07,5.63,5.63,0,0,1,.28,4.48c-1.57,5.1-3.86,9.79-7.77,13.55a14.4,14.4,0,0,1-4,2.72,120.65,120.65,0,0,1-12.84,5,70.1,70.1,0,0,1-7.26,1.7c-.84.18-1.69.36-2.54.48a3.33,3.33,0,0,0-2.16,1.3,2.52,2.52,0,0,0-.61,1.57,5.25,5.25,0,0,0,1.08,3.47c2.52,3.25,5.23,6.36,7.51,9.79,1.49,2.24,3,4.46,4.46,6.7a8.94,8.94,0,0,1,.68,1.26,1.32,1.32,0,0,1-.78,1.86,6,6,0,0,1-1.11.29c-3.61.51-7.22.93-10.85.11-.46-.1-.93-.23-1.4-.3a3.91,3.91,0,0,0-4.38,2.87,3.09,3.09,0,0,0,1.08,3.07c.4.26.87.4,1.27.66,2.08,1.36,4.2,2.67,6.2,4.15a21.13,21.13,0,0,1,2.81,2.86,3.43,3.43,0,0,1,.92,2.35c0,1.44.06,2.88,0,4.31a11.27,11.27,0,0,1-1.86,5.66,10.33,10.33,0,0,1-6.3,4.66,59.62,59.62,0,0,1-10.79,1.57c-2,.15-4,.12-5.88.17-2.07-.06-4-.07-5.89-.21a33.14,33.14,0,0,1-4.55-.6,112.84,112.84,0,0,1-14.69-3.94c-2.42-.84-5.83-1.54-7.7.06s-2.56,5.07,9.4,11.28c8.89,4.2,25.33,8.73,48.36,7.28a133,133,0,0,0,20.64-4.11c4.45-1.15,8.83-2.52,13.19-3.95,9.82-3.22,19.45-7,29.07-10.73,6.52-2.56,13.55-3.28,20.47-4.4a177.17,177.17,0,0,1,18.23-2.23,83.34,83.34,0,0,1,13.77.19,75,75,0,0,1,13.43,2.91,22.46,22.46,0,0,1,3.47,1.35c3.18,1.57,6.31,3.21,9.46,4.83.43.22.83.48,1.27.68a33.74,33.74,0,0,1,10.28,7.22c1.81,1.85,3.69,3.63,5.51,5.47A28.35,28.35,0,0,1,665,418.34a11.19,11.19,0,0,1,0,7.88,8.5,8.5,0,0,1-2.18,3.34,21.92,21.92,0,0,0-3.16,3.7,6.22,6.22,0,0,0-1,4.63c.52,3.22.95,6.44,1.36,9.67a35.56,35.56,0,0,1,.2,3.73,73.21,73.21,0,0,1-.55,11.46,159.25,159.25,0,0,1-3.42,19.51,58.24,58.24,0,0,1-3.69,10.56,7.77,7.77,0,0,1-1,1.75,7,7,0,0,0-1.56,4.81,38.66,38.66,0,0,0,.54,7.44,43.43,43.43,0,0,0,2.42,8.26c.63,1.6,1.32,3.18,1.88,4.81a39,39,0,0,0,8.14,13.74c1.55,1.7,3.1,3.4,4.71,5a33,33,0,0,1,6,8.69,23,23,0,0,1,1.9,5.41,39,39,0,0,1,.94,11.7c-.25,2.86-.62,5.71-.88,8.57-.37,4.1-.7,8.2-1,12.3-.22,2.87-.39,5.74-.59,8.6-.37,5.26-.33,10.53-.21,15.8a196.51,196.51,0,0,0,4.39,35A17.44,17.44,0,0,1,678.19,654Z"/></svg>