<svg id="Layer_1" data-name="Layer 1" xmlns="http://www.w3.org/2000/svg" viewBox="0 0 1000 1000"><title>Covers Icon</title><path d="M184.47,429.16a5.82,5.82,0,0,1,2.42,1.81,13.8,13.8,0,0,1,1,3.75l2.9,31.91c0,.49-.4.81-1.2,1a1.39,1.39,0,0,1-1.7-.73q-6.28-19.81-18.74-30.22t-30.82-10.4a57.67,57.67,0,0,0-31.56,8.83q-13.91,8.84-21.64,25.39T77.35,499q0,21.76,8.23,38.81t22.48,26.48a57.07,57.07,0,0,0,32.16,9.43q17.66,0,29.38-9.31t20.67-29.62c.16-.49.64-.64,1.45-.49s1.21.41,1.21.73l-3.14,29c-.16,1.93-.45,3.14-.85,3.62a8.34,8.34,0,0,1-2.54,1.69,120.12,120.12,0,0,1-46.18,9q-25.87,0-46.18-9.79T62.36,541Q51,523.22,51,500.24q0-22.73,11.85-40.62t32.4-27.93q20.55-10,45.94-10Q168,421.66,184.47,429.16Z"/><path d="M252.77,567.82a72,72,0,0,1-27.08-28.53A82.53,82.53,0,0,1,216.14,500q0-24.9,12.57-42.68A78.77,78.77,0,0,1,261,430.61a96.4,96.4,0,0,1,40.26-8.95q23,0,40.38,10.76a73,73,0,0,1,26.72,28.41,79.28,79.28,0,0,1,9.31,37.48,74.1,74.1,0,0,1-11.61,40.38,83.35,83.35,0,0,1-31.07,29,86.49,86.49,0,0,1-42.19,10.64Q270.31,578.34,252.77,567.82ZM327,564.68q11.49-7.86,18.14-23.09t6.65-36.27q0-22.24-7.38-39.89t-21-27.57q-13.67-9.92-32-9.91-23.46,0-36.39,16.8T242,491.3q0,23,7.62,41.58t21,29.14A47.9,47.9,0,0,0,301,572.54,45,45,0,0,0,327,564.68Z"/><path d="M545.94,425.77c0,1-.24,1.45-.72,1.45q-8.72,0-16,6.53t-11.85,18.86L470.5,575.2c-.16.64-1.05,1-2.66,1s-2.5-.32-2.66-1L404,444.39q-4.35-8.94-8.7-13.06a14.62,14.62,0,0,0-10.4-4.11c-.48,0-.73-.48-.73-1.45s.25-1.45.73-1.45l6.29.24c3.54.33,7.57.48,12.09.48q16.92,0,30.46-.48,3.87-.24,9.91-.24c.49,0,.73.48.73,1.45s-.24,1.45-.73,1.45q-15.23,0-15.23,10.64a21.75,21.75,0,0,0,2.42,9.19l45,96.23,35.3-91.64a30,30,0,0,0,2.18-10.39q0-6.78-4.47-10.4t-13.42-3.63c-.49,0-.73-.48-.73-1.45s.24-1.45.73-1.45l11.6.24c6.13.33,11.77.48,16.93.48,3.06,0,6.85-.15,11.36-.48l9.92-.24C545.7,424.32,545.94,424.8,545.94,425.77Z"/><path d="M663.45,537.24a2.55,2.55,0,0,1,1.33.36q.6.36.6.6A259.77,259.77,0,0,0,663,571.81a4.27,4.27,0,0,1-.73,2.78c-.48.57-1.45.85-2.9.85H554.4c-.48,0-.72-.48-.72-1.45s.24-1.45.72-1.45q8.22,0,12-1.21a7.64,7.64,0,0,0,5.08-4.72q1.32-3.5,1.33-10.76V443.91c0-4.84-.45-8.38-1.33-10.64a8,8,0,0,0-5.2-4.72q-3.87-1.32-11.85-1.33c-.48,0-.72-.48-.72-1.45s.24-1.45.72-1.45H655c1.61,0,2.41.72,2.41,2.18l.49,31.43c0,.32-.45.57-1.33.72s-1.41,0-1.57-.48q-5.81-27.57-33.61-27.56h-9.67q-8.72,0-12.34,3.14t-3.62,10.64v49.32H619q26.6,0,26.6-17.89c0-.48.44-.72,1.33-.72s1.33.24,1.33.72l-.25,21,.25,11.36q.48,7.74.48,12.57c0,.33-.48.49-1.45.49s-1.45-.16-1.45-.49q0-20.79-27.08-20.79h-23v54.89q0,8,3,11.12t10.76,3.14h11.85q32.4,0,41.1-31.43C662.48,537.4,662.8,537.24,663.45,537.24Z"/><path d="M846.24,574c0,1-.24,1.45-.72,1.45H806.59q-5.57,0-20.67-19.34t-36.64-54.17q-5.31.49-8.22.49-5.31,0-12.57-.49v53.92q0,7.5,1.33,10.89a7.65,7.65,0,0,0,5.08,4.59q3.74,1.21,12,1.21c.32,0,.48.48.48,1.45s-.16,1.45-.48,1.45q-8,0-12.33-.24l-17.9-.24-17.41.24q-4.59.24-12.57.24c-.48,0-.72-.48-.72-1.45s.24-1.45.72-1.45q8.22,0,12-1.21a8,8,0,0,0,5.2-4.72q1.44-3.5,1.45-10.76V443.91c0-4.84-.45-8.38-1.33-10.64a8,8,0,0,0-5.2-4.72q-3.87-1.32-11.85-1.33c-.32,0-.48-.48-.48-1.45s.16-1.45.48-1.45l12.58.24c7.09.33,12.81.48,17.16.48q8,0,17.41-.72,3.13-.24,7.62-.48t10-.24q21,0,32.52,8.22t11.49,23a41,41,0,0,1-7.38,23.94,52.41,52.41,0,0,1-19.7,16.93q19.82,29.25,33.12,45.7t23.58,23.81q10.27,7.38,20.19,7.38C846,572.54,846.24,573,846.24,574ZM742.51,496.37q15.72,0,22.49-7.85t6.77-25.27q0-19.59-6.65-27.32t-19.22-7.74q-9.43,0-13.42,3.5t-4,12.7v51A87.48,87.48,0,0,0,742.51,496.37Z"/><path d="M883.35,465.79a47.56,47.56,0,0,0,11.13,12q6.64,5.07,18,12.09,12.33,7.74,19.46,13.29A50.67,50.67,0,0,1,944,516.8a35.63,35.63,0,0,1,5,19,39,39,0,0,1-6.41,22,42.68,42.68,0,0,1-18.13,15.11,62.78,62.78,0,0,1-26.72,5.44,87.12,87.12,0,0,1-20.91-2.66q-10.77-2.65-16.33-6.53a5.68,5.68,0,0,1-2.41-4.59l-1.45-36.75v-.25q0-1,1.2-1.08c.81-.08,1.29.2,1.46.84q8,20.07,18.25,32.89T903.79,573q10.38,0,17.4-5.68t7-19a36,36,0,0,0-4.72-18.62,46.43,46.43,0,0,0-11.6-13.3q-6.9-5.31-18.74-13.05-11.61-7.5-18.14-12.7a47.63,47.63,0,0,1-11.12-12.81,33.8,33.8,0,0,1-4.59-17.78q0-12.56,7-21.27a41.74,41.74,0,0,1,18.25-12.94,66.44,66.44,0,0,1,23.58-4.23,87.17,87.17,0,0,1,16.44,1.57,66.35,66.35,0,0,1,13.78,4q3.63,1.45,3.63,4.6l.72,32.88c0,.48-.44.81-1.33,1s-1.41,0-1.57-.49a106.93,106.93,0,0,0-12.93-26.72q-8.11-12-24.3-12-10.89,0-17.29,6.28T878.88,450A28.48,28.48,0,0,0,883.35,465.79Z"/></svg>