<svg id="Layer_1" data-name="Layer 1" xmlns="http://www.w3.org/2000/svg" viewBox="0 0 1000 1000"><title>Drake&amp;apos;s Icon</title><path d="M821.73,654.38l-3.9-6a35.7,35.7,0,0,0,9-9.66,19.61,19.61,0,0,0,3.31-10.23v-1.56a20.19,20.19,0,0,1-11.53-3.12c-3.09-2.08-4.63-5.38-4.63-9.93a13.54,13.54,0,0,1,4.58-10.41,16,16,0,0,1,11.19-4.19,16.42,16.42,0,0,1,12.65,5.26q4.88,5.26,4.87,14,0,10.34-7,20.27A48.32,48.32,0,0,1,821.73,654.38Z"/><path d="M621.39,309.05c-4.06,2.67-7.44,4.89-10.81,7.12-15.65,10.32-31.44,21.33-36.24,40.4-3.58,14.19-4.23,29.32-4.44,44.06-.11,7.34-.46,11.1-8.58,13.18-20.48,5.26-34.31,20.29-48.16,35.07a5.12,5.12,0,0,1-4.9.57c-5.89-4-11.56-8.29-17.13-12.71a5.28,5.28,0,0,1-1.85-4.05c5.84-39.84,20.66-75.95,48.17-105.57,12.46-13.41,28.6-22.82,48.33-21.89,10.8.51,21.56,1.74,32.34,2.69A18.37,18.37,0,0,1,621.39,309.05Z"/><path d="M658.76,437.25c-5.84,2.78-10.85,5.47-16.08,7.61-11.4,4.66-22.77,9.46-34.42,13.43-14.33,4.89-22.3,15.6-28.32,28.5-.44,1-1,1.88-1.43,2.82-5.64,11.26-8.47,13.69-20.58,9.61s-19.52.58-26.73,8.67c-4.16,4.67-8.52,9.18-12.44,14.06-4.73,5.88-9.09,12.07-13.9,18.52-4.62-5.13-8.9-10.67-14-15.32-4-3.61-3.65-6.64-1.54-10.89,18.6-37.53,45.13-67.88,81.13-89.56,3-1.81,7.17-2,10.85-2.28,26.1-2,51.3,1.22,74.94,13.22C656.79,435.92,657.28,436.3,658.76,437.25Z"/><path d="M503.26,350.93c-6.7-5.23-13.72-11.32-21.35-16.5-8.18-5.56-17-10.23-25.41-15.4-1.09-.66-2.42-1.93-2.53-3-.88-8.18-2.18-16.41-2-24.59.2-7.61,1-15.59,3.47-22.7,7.6-21.47,16-42.65,24.45-63.82,2.84-7.13,5.22-7.15,9.35-2.19,12.8,15.38,19.24,33.9,25.27,52.35,5.72,17.53,9.51,35.69,13.94,53.63,1.58,6.38.07,11.71-4.79,16.92C516.2,333.61,509.83,342.67,503.26,350.93Z"/><path d="M361.11,340.63c6.21-3.39,10.57-6.71,15.48-8.25C390.24,328.09,404,324,418,321c4.47-1,9.78,1.43,14.59,2.73,24.71,6.67,44.14,22.1,62.94,38.46.83.72,1.11,3.23.52,4.24-10.25,17.43-15.84,36.55-20.73,55.95-.18.68-1.83,1.69-2.36,1.48-10.13-4.06-20.24-8.18-30.23-12.57a9.28,9.28,0,0,1-4.39-4.4c-5.07-11.77-9.05-24.09-15-35.4-5.74-11-16-18.32-27.24-22.8-8.8-3.5-18.66-4.32-28-6.35C366.38,342,364.73,341.52,361.11,340.63Z"/><path d="M474.37,510.88c-4.84-4.42-9.19-9-14.2-12.71-2.11-1.57-6.41-2.74-8.29-1.64-10.1,5.88-20.39,7.94-31.35,3.42a13.79,13.79,0,0,1-5.85-5.61c-6.83-11.47-13.39-23.11-19.94-34.75a3.16,3.16,0,0,1,.38-2.83c9.41-11.21,23-15.61,35.52-21.85,1.06-.53,2.18-1,3.23-1.49,11.92-6,22.77-7.41,34.25,2.57,10.21,8.88,22.39,15.48,33.59,23.24.84.59,1.49,2.9,1,3.71-8.91,15.44-18,30.78-27,46.14C475.5,509.41,475.24,509.71,474.37,510.88Z"/><path d="M505.53,599.13c-12.13.38-12.41.06-9.12-9.11,7.66-21.33,15.5-42.58,32-59.13,3-3,5.79-7.09,9.43-8.18,4.33-1.31,10.66-1.68,14,.61,9.07,6.13,17,13.88,25.37,21.06a2.27,2.27,0,0,1,0,2.18c-8.42,10.53-13.15,22.55-15.12,35.81-.23,1.53-1.82,3.15-3.19,4.17-11.72,8.72-25.33,11.16-39.51,11.72C514.05,598.47,508.66,598.93,505.53,599.13Z"/><path d="M473.36,596.54c-9.74-1.84-18.34-3.1-26.71-5.26-2.59-.67-5-3.44-6.69-5.84-5.37-7.8-10.4-15.85-15.42-23.89a3.86,3.86,0,0,1,0-3.3c7.3-13,18.31-22.31,30.28-30.64s8.95-9.5,20.42,1.13c7.4,6.86,13.9,14.7,20.68,22.22a3.86,3.86,0,0,1,.46,3.46q-9.23,18.78-18.79,37.39C476.71,593.62,474.84,594.94,473.36,596.54Z"/><path d="M348.12,478.91c-2.23-9.52-4.94-17.74-5.93-26.17-1.22-10.5-2.49-21.33,4.71-30.79,2.66-3.5,5.12-6,10.09-4.6,6.45,1.79,13.12,4.31,19.62,4.09,10.14-.34,20.22-2.73,30.33-4.21,4.41-.65,8.83-1.62,13.24-1.58,1.7,0,3.37,2.43,5.06,3.74-1.18,1.15-2.15,2.75-3.56,3.36-26.34,11.48-49.28,27.43-67,50.33C353.22,474.9,351.17,476.22,348.12,478.91Z"/><path d="M373.75,578.82c.7-21.48,4.18-40,14.81-56.47a89.31,89.31,0,0,1,10.09-12.55,6.48,6.48,0,0,1,5.58-1.31c13.91,4.67,28,4,42.25,2.34,1.42-.17,3,.69,4.45,1.07-1,1.08-1.84,2.5-3.08,3.17-28.25,15.23-49.59,37.72-67.53,63.87-1.11,1.61-3.62,2.27-5.47,3.37Z"/><path d="M617.69,511.72c-.73,15-2.13,28.94-10.56,41.13-4.07,5.89-5.72,6-9.51.23-8.71-13.33-17.58-26.51-32.45-33.94-2.47-1.24-5.13-2.16-7.44-3.65-1.29-.83-2-2.5-3-3.8,1.55-.56,3.15-1.69,4.65-1.58,6.94.51,14.22,3.1,20.68,1.69,9.91-2.16,19.44-6.57,28.74-10.85,5.24-2.42,6.92-.22,8,3.93A47.28,47.28,0,0,1,617.69,511.72Z"/><path d="M62,645.42h43.83q37,0,57.12,18.74t20.11,55.76q0,48.84-34.07,67.91a59.29,59.29,0,0,1-20.67,7q-12.27,2-32.48,2H62q0-8.17.3-16.58t.61-16.8V701.07q0-9.54-.46-31.8T62,645.42Zm40.88,21.81V775.11A68.34,68.34,0,0,0,117.19,774a23.73,23.73,0,0,0,12.49-7q10.44-11.35,10.45-47.24,0-29.3-7-40.88t-25.21-11.58Z"/><path d="M266.86,796.91H226l.23-9.08.45-40.43V722l-.45-40.88V645.42h39.58q22.4,0,32.13,1.37,18.54,2.49,28.5,10.67,12.43,10,12.44,29.3,0,27.48-30,37.7,6.58,15.9,15.9,36.34,5.67,12.72,16.8,36.11H295.71q-13.86-38.37-26.12-67.68h-3.41v18.85q0,12,.23,24.31Zm-.68-130.36v42q14.54,0,21.35-3.63,9.32-5,9.31-17.94,0-12.72-9.31-17.26Q280.95,666.55,266.18,666.55Z"/><path d="M400.41,796.91H367.7q6.39-12.25,12.79-27.91,5.25-13.17,10.51-29.06l15.75-49.1Q410.4,680,412,674.49q3.4-11.13,4.54-16.8l-3.63-12.27h42.7l2.95,10.45,9.31,35,8.86,31.57q5.22,18.86,10.67,37.7a266.06,266.06,0,0,0,13.86,36.79H455.6q-1.14-7.49-3.18-16.8-.46-1.82-4.09-16.81H410.17q-2.26,7.28-5.11,16.58T400.41,796.91Zm15.67-55.41h26.34l-11.81-50.65Z"/><path d="M580.06,796.91H539q0-5.89.45-18.17t.46-16.58V688.58q0-7.73-.46-24t-.45-19.2h41.11q0,12.95-.23,21.13-.92,32.48-.91,35.65,7.5-12.26,15.22-24.75,10-14.76,19.76-22.94,12.72-10.44,26.35-10.45l9.54.68v26.35l-4.32-.23q-20.67,0-32.48,22.71L634.34,742q13.39,30.88,25.21,55h-46.1q-5.24-15.66-12.27-32.25Q595.5,751,587.1,733.09l-8.18,14.31v16.35q0,8.41.12,16T580.06,796.91Z"/><path d="M797.19,773.29l-.46,23.62H696.57q0-15.66.23-23.16,1.13-37.25,1.13-41.57V696.53q0-8.4-.68-25.44t-.68-25.67h99l.91,24.76a110,110,0,0,0-14.77-2c-5-.33-10.45-.5-16.35-.5H737.68v40.43q7,0,23.39-.45c10.91-.31,16.73-.46,17.49-.46v24.08q-10.21-1.14-18.74-1.37t-22.14-.22v45.42h19.53A397,397,0,0,0,797.19,773.29Z"/><path d="M831.93,790.55v-37q20.9,24.76,46.79,24.76,8.87,0,14.42-4.88A15.78,15.78,0,0,0,898.71,761q0-11.35-16.81-21.12Q866.23,731,850.56,722q-16.81-12.71-16.81-31.57,0-21.79,17.6-35.2t46.45-13.4a135.43,135.43,0,0,1,15.1.68,88.5,88.5,0,0,1,14.2,3.18v34.07Q910.75,665,891.67,665q-9.09,0-14.43,4a13,13,0,0,0-5.33,11q0,9.07,17,18.39,26.8,14.77,31.8,18.85Q938,731.28,938,751.72q0,22-16.69,35.54t-43.5,13.52a112.07,112.07,0,0,1-24.18-2.73A90,90,0,0,1,831.93,790.55Z"/></svg>