<svg id="Layer_1" data-name="Layer 1" xmlns="http://www.w3.org/2000/svg" viewBox="0 0 1000 1000"><title>Endless Icon</title><g id="WHaoXi.tif"><path d="M516.49,686.42c-.45,7.81-.69,15.64-1.37,23.43-1.46,16.63.12,33,2.9,49.41,3.21,18.94,3.86,38.11,4.08,57.27.08,6.48-1,13-2,19.46-.83,5.71-1.78,6.41-7.38,7.44a8.75,8.75,0,0,0-1.71.31c-5.87,2.32-11.18.41-16.17-2.45a53.06,53.06,0,0,1-9.53-6.8c-14.75-13.54-24.7-29.57-25.29-50.26-.14-5.06-.06-10.13-.45-15.17a27.66,27.66,0,0,0-1.9-7.54c-.79-2.1-2.23-2.41-4.2-1.19a10.46,10.46,0,0,0-4.73,6.55c-1.83,7.47-4,14.9-5.1,22.48-.79,5.67-.16,11.56.1,17.34.18,3.91.82,7.79,1.27,11.69,1.58,13.56,1.13,27-3.48,40a23,23,0,0,1-3.92,7.19c-4.53,5.3-10.68,4.39-13.59-1.87a36.36,36.36,0,0,1-3.25-12.49C420.19,844,418,837,413,831.34c-3.08-3.46-5.94-7.15-9.23-10.4a43.62,43.62,0,0,0-8-6,27,27,0,0,1-7.63-7,13.2,13.2,0,0,1-1.67-13.61,75.8,75.8,0,0,1,11.9-19.14,93,93,0,0,0,6.49-8.14c3.45-5.32,8.32-9.2,12.8-13.51,2.72-2.6,5.19-5.46,7.78-8.21a12.87,12.87,0,0,1,2.09-2.2c4.81-3.08,7.68-7.8,10.81-12.34,2.22-3.21,4.9-6.1,7.11-9.32,4.85-7.08,9.48-14.28,10.18-23.21.24-3-2-7.8-5-8.89-7.64-2.74-10.64-11.54-7.25-19.52,3.09-7.3,7.83-13.18,13-18.86,3.61-4,7.6-7.58,11.21-11.55A108.71,108.71,0,0,0,485.7,613a69.16,69.16,0,0,1,3.52-6.51c7.22-11.8,10.71-25,14.48-38.12,1.75-6.13,3.77-12.18,5.62-18.28,1.44-4.72,3-9.41,4.12-14.2a30,30,0,0,0,.58-8.62,7.18,7.18,0,0,0-8.77-6.82,15.88,15.88,0,0,0-6.92,3.3,95.74,95.74,0,0,0-18.86,21.53q-2.81,4.41-5.89,8.64A274.05,274.05,0,0,0,430,646.29c-2.45,9.26-5.12,18.46-7.56,27.72a65.33,65.33,0,0,0-1.42,8.14,11.72,11.72,0,0,0,4.41,11.2,36.38,36.38,0,0,1,4.31,4.29c3.95,4.67,4.72,9.91,2.09,15.42a134.26,134.26,0,0,1-6.38,11.88c-9.73,16.15-22.85,28.37-40.82,35-5,1.86-9.82,4.32-14.71,6.55-9.46,4.32-16.78,11.36-23.71,18.84a165.42,165.42,0,0,0-21.05,28.75,46.33,46.33,0,0,1-4.32,6.52c-4,4.71-8.85,5-13.13.6-7.1-7.32-10.15-16.43-10.59-26.45-.44-10.23,1-20.3,3.34-30.21,5-21.62,10.33-43.18,15.37-64.8a157.36,157.36,0,0,0,3.7-37.19c-.1-13.66-5-26.14-12.39-37.54-1.71-2.63-4.23-4.76-6.53-7-5.77-5.53-11.75-10.82-17.39-16.47a118.91,118.91,0,0,1-9-10.62c-6.17-7.84-6.71-16.44-2.91-25.43,3.39-8,8.75-14.31,16.85-18,3.3-1.5,6.54-3.15,9.87-4.59,22.9-9.85,40.86-25.72,55.35-45.68,6.14-8.45,11.83-17.23,17.61-25.94a75.86,75.86,0,0,0,9.6-20.88,13.78,13.78,0,0,0-1.16-11.31,64.64,64.64,0,0,0-5-7.6A55.13,55.13,0,0,1,364,412.09a31.64,31.64,0,0,0-1.81-4.9c-4.31-9.13-1.91-17.15,4.67-23.91A92.24,92.24,0,0,1,381,371.73a91.29,91.29,0,0,1,27.81-13.12c6.5-1.75,12.13-5.52,15.35-12,1-2.06.8-3.57-.42-5.57-3.4-5.62-7.58-10.22-13.78-12.78a11.51,11.51,0,0,1-3.22-2.2c-6.93-6.35-15.35-7.83-24.26-7a17.13,17.13,0,0,0-12.52,7.1c-1.39,1.86-2.71,3.78-4.18,5.57a26.87,26.87,0,0,1-3.87,4.1c-4.55,3.63-9.64,3.22-13.63-1a19.68,19.68,0,0,1-5.52-13.37c-.08-2.76,0-5.52-.16-8.27-.35-5.07-1.87-9.69-5.68-13.29-3.17-3-5.21-3.25-8.2-.07a133.66,133.66,0,0,0-8.86,11.2c-1.05,1.38-1.75,3-2.84,4.37-5.42,6.57-8.92,14.22-12.63,21.79a21.58,21.58,0,0,0-.95,17.29c.43,1.24.81,2.49,1.35,3.68,8.39,18.36,11.67,37.85,13.28,57.8,1.19,14.73.17,29.31-1.84,43.84A78.4,78.4,0,0,1,304,491.64c-2.35,3.67-4.68,7.36-7.29,10.84-12.87,17.21-22.74,36.07-30.82,55.9-2.23,5.46-5.67,10.15-9.35,14.58-6.36,7.66-14.3,9-22.92,4-4.88-2.82-9.46-6.18-14.07-9.46-6.72-4.79-7.74-4.53-12.09,2.36a12.55,12.55,0,0,0-1.6,11.11c2.78,9.25,6.44,18.06,12.28,25.81a34.37,34.37,0,0,0,6.12,6.11,74.25,74.25,0,0,1,14.46,15c18.19,25.51,31.46,53.13,36.27,84.41,1.71,11.13,1.64,22.27.94,33.45q-.72,11.51-1.59,23c-.52,7-1.68,13.84-4.66,20.26-5.13,11.09-18.23,17.89-30.25,15.75-4.86-.86-8.42-3.51-9.77-8.24a86.89,86.89,0,0,1-2.93-14.45,134.07,134.07,0,0,0-6.54-29.65,22.33,22.33,0,0,0-2.16-4.74c-3-4.64-6-9.27-9.16-13.76-3.59-5.05-8.45-8.65-13.76-11.83-7.22-4.31-14.36-8.8-21.24-13.62-6.24-4.37-10.76-10.52-15.36-16.51-2.2-2.87-4.21-5.91-6.55-8.66-9.93-11.6-18.18-24.23-22-39.14-3.34-13.05-6.86-26.08-8.26-39.58-2.12-20.45-1.53-40.58,5.53-60.15a31.38,31.38,0,0,1,2.58-6c4.89-7.9,10.12-15.59,16.61-22.31,9.71-10,18.12-21.09,26.27-32.44,13.2-18.39,26.72-36.58,40.82-54.28,17.29-21.72,32.54-44.84,48.12-67.74,3.27-4.8,6.42-9.67,9.59-14.54,9.46-14.52,15.9-30.63,23.95-45.9a243,243,0,0,1,14.66-24.66c4.84-7.05,9.24-14.4,13.84-21.62,4-6.24,7.86-12.54,12-18.69,4.92-7.35,10-14.58,15.08-21.86,4-5.72,7.92-11.45,11.92-17.14a15.76,15.76,0,0,1,2.62-2.91c11.89-10,23.75-20,35.73-29.86a59.9,59.9,0,0,1,17.9-9.71c11.59-4.2,23.08-8.7,34.61-13.06A103.9,103.9,0,0,1,481,135.49a136.83,136.83,0,0,0,17.53-3.16,48.82,48.82,0,0,1,14.69-1.19c13.74,1.11,27.46,2.46,41.21,3.44,24.39,1.73,48.34,6.33,72.23,11.14,14.5,2.92,28.82,6.7,43.24,10,9.68,2.24,17.59,7.59,24.39,14.47a108.26,108.26,0,0,1,16.34,21.37,20.3,20.3,0,0,1,2.5,11.69c-.27,6.38-.47,12.76-.47,19.14,0,8.63,4.88,15,10.41,20.88a6.44,6.44,0,0,0,2.67,1.39c6.3,2.16,12.65,4.21,18.94,6.41,12,4.17,24.48,6,36.8,8.58a180.64,180.64,0,0,1,26.24,7.84q20.14,7.61,40.46,14.73c8.88,3.12,16.47,8.49,24.35,13.35a8.46,8.46,0,0,1,2.69,3.31c3.84,7.32,4.53,15.21,3.91,23.28a9.92,9.92,0,0,1-1.22,3.69c-1.72,3.35-3.21,6.92-5.47,9.88-3.62,4.73-5,10-5.66,15.73A241.82,241.82,0,0,1,859,389a35.13,35.13,0,0,1-1.35,3.67c-3.46,8.45-7.08,16.83-10.38,25.34-4.78,12.35-12.61,22.34-23.82,29.14-9.95,6-20.79,9-32.4,4.22-1.2-.49-2.49-.78-3.73-1.19-7.41-2.46-14.47-2-21.35,2-4.36,2.58-9.1,4.5-13.55,6.95-10.08,5.53-21,6.51-32.12,5.8A107.36,107.36,0,0,1,679,453.53c-9.08-4.51-18.42-8.54-27.77-12.47-7.25-3.05-14.81-2.58-22.22-.5A59.21,59.21,0,0,0,608.61,451c-11.67,9-22.25,19.09-30.61,31.33-5.16,7.55-10.66,14.88-15.38,22.7-3.64,6.05-6.41,12.65-9.38,19.1-2.18,4.74-4,9.62-6.06,14.44-1.51,3.61-3.27,7.14-4.52,10.84-7.61,22.39-15.62,44.7-19.25,68.19-2,12.91-3.44,25.9-4.94,38.87-1.14,9.94-2,19.92-3,29.87ZM823,390.48c-.24-.41-.48-.81-.71-1.22a11.75,11.75,0,0,0-2.63.75c-1,.55-1.78,1.49-2.78,2.05-2.54,1.44-5.33,1.27-6.9-.27s-1.93-4.19-.2-6.81c2.24-3.38,4.68-6.65,7.24-9.8,1.58-1.94,3.29-1.95,5.35-.49a20.83,20.83,0,0,1,1.75,1.51,3.86,3.86,0,0,0,3.58-4.05,47.62,47.62,0,0,1,0-5.21,26.28,26.28,0,0,1,1.68-6.65A43.9,43.9,0,0,1,833.3,354c2.63-3.94,1.22-7.37-3.48-8.12-2.87-.46-5.35-1.48-6.8-4.12-2.26-4.07-5.82-5.33-10.19-5-2.94.22-3.91-.32-5.13-2.88-2.59-5.43,1.67-13.74,7.57-14.76,3.43-.6,5.9,1.06,6.7,4.55.22.95.32,1.94.47,2.93,5-1.22,5.31-1.51,5.22-5.5a44.79,44.79,0,0,1,3.58-17.8c1.27-3.15.43-5.75-2.59-7.23a88,88,0,0,0-8.45-3.29c-1.77-.64-3.59-1.15-5.37-1.75-3.43-1.15-6.79-2.64-10.3-3.43a196,196,0,0,1-34.3-11.16c-8.12-3.49-16.66-6-24.83-9.38-4.94-2.06-9.35-2.77-14.52-.47a19.85,19.85,0,0,0-9.89,9.85,8.72,8.72,0,0,0,.34,8.37,15,15,0,0,1,1.65,4.42,15.32,15.32,0,0,0,8,11.29A41.27,41.27,0,0,0,746.08,306c6,.81,12.08,1.6,18.1,2.56a11.48,11.48,0,0,1,9.62,7.82c1.14,3.14,2.34,6.25,3.36,9.42a14.54,14.54,0,0,0,7.65,9,40.72,40.72,0,0,0,6.33,2.86c3.22.92,5.31,2.65,6.26,5.94a6.83,6.83,0,0,0,4.75,5.19c2.58.77,3.27,2,2.63,4.61-1.15,4.68-2.9,9-6.92,12.24a43.8,43.8,0,0,0-6.13,6.68,2.64,2.64,0,0,0,0,2.31c.21.44,1.21.73,1.82.67a9.94,9.94,0,0,0,2.45-.86,59.2,59.2,0,0,1,5.7-2.12c2.13-.58,3.6.53,3.7,2.46.18,3.85-3.82,10.58-7.58,12a83.3,83.3,0,0,1-11.28,3.2,6.06,6.06,0,0,1-6.83-2.75c-1.5-2.47-1.12-5,.53-7.35,1.33-1.89,2.7-3.76,4-5.66,3.19-4.63,1.5-9.93-3.77-11.83a21.09,21.09,0,0,1-2.43-.95,5.53,5.53,0,0,0-6.45,1,16.31,16.31,0,0,0-3.39,3.89c-9.3,15.85-27.1,23.12-46.56,20.14a12.87,12.87,0,0,0-11.14,3c-4.45,3.73-4.15,7,1.21,8.95a66.81,66.81,0,0,0,11.8,2.65c2.7.47,5.51.29,8.21.75,7.3,1.23,11.91,5.63,14.08,12.62a46.27,46.27,0,0,1,1,4.67c1.24,6.06,4.21,9,10.41,10,4,.66,8,1.27,12.06,1.76a78.87,78.87,0,0,0,21.7-.34,21.42,21.42,0,0,0,10.88-5.11c2.71-2.35,4.86-4.51,3.27-8.86-1.49-4.09-1.42-4.64-5.71-4.39a34.09,34.09,0,0,1-6.92.08,8.46,8.46,0,0,1-7.47-6.9c-.54-3.32,1.57-6.8,5.28-8.68,3.37-1.71,8.32-1.64,10.1,1,2.48,3.68,5.69,3.31,9.16,2.94C816.26,399.89,819.74,395.31,823,390.48Zm-242.55-64a89.56,89.56,0,0,1-2.7,23,66.48,66.48,0,0,1-8.5,20.4c-4,6.44-9.63,10.92-17.11,12.42a98.43,98.43,0,0,1-13.43,1.22c-5,.31-9.67-1-14.29-3.07-7-3.13-14.22-5.75-21.34-8.59a2.25,2.25,0,0,0-.42-.13c-5.89-1.62-10.78.81-12.92,6.54a3.47,3.47,0,0,0,.13,2.8c2.67,3.75,5,7.9,9.45,10,8.15,3.77,16.06,8.28,24.51,11.15,16.92,5.75,34,4.95,50.75-1.3,5.12-1.92,9.39-4.87,12-10.06A144.82,144.82,0,0,0,597.42,362a19.24,19.24,0,0,0,.34-2.15c2-14.48,1.41-28.87-.51-43.37-2-15.45-8.32-28.89-17.29-41.28-4.58-6.34-9.52-12.41-14.31-18.6-4.18-5.39-6.51-11.56-8-18.17-4.07-18.23-.47-36.11,2.84-53.89a48.39,48.39,0,0,1,10.22-21.44,13.68,13.68,0,0,0,2.08-4.25,3.83,3.83,0,0,0-1.39-4.68c-4.3-2.58-7.83-4.24-12.33-.45-3.22,2.71-6.58,5.25-9.81,7.94-7.16,6-15.5,8.12-24.68,8a88.82,88.82,0,0,1-33.12-6.45c-3.36-1.39-6.27-.79-9.22.38a6,6,0,0,0-3.79,5.41c-.18,2.56,1.33,4.05,3.51,4.94,3.21,1.31,6.59,2.29,9.66,3.86,6.94,3.55,13.82,7.21,20.54,11.14a96.44,96.44,0,0,1,11.4,7.95c4.23,3.38,7.83,7.44,9.74,12.61,3.49,9.43,6.22,19.05,5.26,29.3-.07.72,0,1.46,0,2.18-.64,9,3.28,16,9.29,22.14,5.14,5.31,10.39,10.55,15.11,16.22a57.47,57.47,0,0,1,7.63,12.07c2.67,5.62,4.55,11.61,6.89,17.39A40.4,40.4,0,0,1,580.47,326.52ZM696.79,195.61c-.77-.85-1.86-1.57-2.22-2.55-1.92-5.29-6.07-6.13-10.91-5.77-3.48.26-5.21,1.52-6.16,4.52a6.47,6.47,0,0,0,2,7.46,21.09,21.09,0,0,1,2.52,2.38c10.25,12.42,10.58,31.46.81,44.08-1.5,2-3.57,3.68-5.87,3.07a55.71,55.71,0,0,1-12.5-4.7c-3.64-2-6.83-4.89-10-7.64-7.57-6.56-16.61-7-25.87-6.4a7,7,0,0,0-5.92,3.92c-1.59,2.93-.3,5.28,3,5.86,10.26,1.82,20.41,4.28,30.56,6.64a14,14,0,0,1,9.1,7c1.78,3.1,2.21,6.55,2.25,10.08a29.41,29.41,0,0,0,.45,6c2.3,10.27,0,19.25-7.15,27-3.59,3.9-8,6.63-12.65,9.11-3.32,1.79-6.88,3.24-9.93,5.4a61.57,61.57,0,0,0-9.36,8.31,12.74,12.74,0,0,0-2.58,5.86c-1,4.54,1.56,7.7,6.2,8a12.47,12.47,0,0,0,4.71-.55Q651,327.93,664.67,323c5.61-2,11-4.09,17.21-1.76a18.91,18.91,0,0,0,12.43.16c7.14-2.24,10.13-7.85,7.77-14.86s-4.88-14-7.43-20.9a31.7,31.7,0,0,0-3.06-6.72,42.93,42.93,0,0,1-6.66-15.82c-.66-3.35-.3-5.39,2.9-6.49a33.23,33.23,0,0,1,7.23-1.1c4.6-.48,7.61-3.63,7.06-8.18a80.13,80.13,0,0,0-2.38-10.51c-.54-2.1-1.4-4.11-2-6.21C694.73,219.15,695.8,207.59,696.79,195.61ZM439.35,281.07c.53-10-3.69-16.85-12.41-20.4-9.75-4-19.32-.3-24.14,9.15a9.17,9.17,0,0,0-.64,7.15,21.57,21.57,0,0,0,6.89,10.3c5.57,4.81,10.68,10,14.4,16.61,6,10.74,12.46,21.28,21.25,30.14,3.26,3.29,6.23,6.88,9.32,10.34a68.76,68.76,0,0,0,18.52,14.26,16.62,16.62,0,0,0,11.78,1.89c6.19-1.34,8.9-7.89,5.12-12.69a151.52,151.52,0,0,0-11.35-13.16q-10-10-20.52-19.45c-7.41-6.65-12.54-14.77-16.39-23.81A19.93,19.93,0,0,1,439.35,281.07Zm-26.89-96.23c-8.5,7.3-16,15.19-21.91,24.31-8.39,13-10.07,26.88-2.45,41.14,2.59,4.84,4.76,5.42,10.37,3.08a11.15,11.15,0,0,0,2.82-2c2.18-1.91,4.3-3.89,6.46-5.83,3.93-3.55,5.79-7.9,5.06-13.22-1.77-12.8.44-25.11,4.42-37.23C419.12,189.36,418.28,187.62,412.46,184.84Zm189.82,38.21c2.18-.27,3.61-.51,5.05-.62,12.53-.87,24.64-3.31,35.87-9.26,3.32-1.75,6.86-3.11,10.13-4.94a14.65,14.65,0,0,0,4.5-3.89c1.8-2.42,1.4-4.21-1.18-5.77a22,22,0,0,0-5.91-2.43c-4.69-1.2-9,.67-12.83,2.84a72.34,72.34,0,0,1-27.57,8.52,15.86,15.86,0,0,0-3.84.69c-3.94,1.49-7.09,4-8.3,8.2C597.24,219.74,599.86,223.13,602.28,223.05Z"/><path d="M824.45,353.66c.09,8.45-3.51,13.52-10.48,15.25-4.7,1.16-8-1-8.7-5.8a17.57,17.57,0,0,1,3-12.79,9.94,9.94,0,0,1,15.51-1.48,4,4,0,0,1,.92,2.29A10.75,10.75,0,0,1,824.45,353.66Z"/><path d="M761.24,406.2c-4.79-.05-6.74-2.81-5.27-7.44,1.21-3.84,5.77-7.29,9.73-7.37,4.12-.08,6.86,3.55,5.78,7.65S765.84,406.25,761.24,406.2Z"/></g></svg>