<svg id="Layer_1" data-name="Layer 1" xmlns="http://www.w3.org/2000/svg" viewBox="0 0 1000 1000"><title>M and M Icon</title><path d="M322.12,653.94a71.49,71.49,0,0,0,15.76-1.76c52.25-11.8,88.53-66.46,122.05-235.42a.79.79,0,0,0-1.05-.89l-26.3,10.81a2.84,2.84,0,0,0-1.69,2.05c-31.26,152-71,191.42-98.83,197.71-30.65,6.93-69.16-19.75-114.43-79.28a2.59,2.59,0,0,0-3.6-.53l-17,12.78a2.63,2.63,0,0,0-.48,3.67C242.93,624,284.19,653.94,322.12,653.94Z"/><path d="M677.47,653.94a71.47,71.47,0,0,1-15.75-1.76c-52.25-11.8-88.53-66.46-122.05-235.42a.79.79,0,0,1,1.05-.89L567,426.68a2.86,2.86,0,0,1,1.69,2.05c31.26,152,71,191.42,98.82,197.71,30.59,6.91,69-19.63,114.15-78.9a3.08,3.08,0,0,1,4.27-.63l16.2,12.21a3.11,3.11,0,0,1,.57,4.35C756.49,624.15,715.33,653.94,677.47,653.94Z"/><path d="M830.62,583.85C800.45,615.7,775.87,669.43,756,748.8a6.11,6.11,0,0,1-8.73,4c-52.84-27.26-175-32.9-225.38-34.06a9.1,9.1,0,0,1-8.87-9.11V405.13a1.63,1.63,0,0,0-1.63-1.63H488.24a1.64,1.64,0,0,0-1.64,1.63V709.65a9.1,9.1,0,0,1-8.87,9.11c-50.43,1.16-172.54,6.8-225.38,34.07a6.11,6.11,0,0,1-8.73-4C223.77,669.59,199.42,615.91,169.34,584a3.37,3.37,0,0,0-4.49-.33l-15.47,11.71a3.31,3.31,0,0,0-.51,4.81c41.16,47.94,66.46,120.45,88.61,248.64l.19,0C243.72,908.27,489.22,909,499.8,909s256.07-.73,262.13-60.18l.19,0c22.1-127.91,52.06-209.16,89-248.77a3,3,0,0,0-.38-4.47l-16-12.08A3.08,3.08,0,0,0,830.62,583.85Zm-330.82,161c127.58,0,214.55,22.24,243,37.5a7.31,7.31,0,0,1,3.64,8q-2.6,12.31-5.08,25.34c-.22,1.12-2.71,2.18-3.79,1.62-11.25-5.76-25.66-10.52-41.85-14.45-75.38-18.3-188.8-18.63-195.92-18.63s-120.54.33-195.92,18.63c-16.19,3.93-30.6,8.69-41.85,14.45-1.08.55-3.57-.5-3.79-1.63q-2.49-13-5.08-25.32a7.31,7.31,0,0,1,3.63-8C285.23,767.09,372.21,744.84,499.8,744.84Zm0,137.77c-127.28,0-207.85-18.2-230.22-31.64a5.05,5.05,0,0,1,0-8.7c6.56-3.94,18.16-8.3,34.45-12.49,20.69-5.31,49-10.35,84.35-13.93a1114.59,1114.59,0,0,1,111.45-5.24,1114.59,1114.59,0,0,1,111.45,5.24c35.34,3.58,63.66,8.62,84.35,13.93,16.3,4.19,27.88,8.55,34.45,12.49a5.05,5.05,0,0,1,0,8.7C707.65,864.41,627.08,882.61,499.8,882.61Z"/><path d="M567.27,140.84l-12.66-12.65a.94.94,0,0,0-1.33,0l-29.54,29.53A8.11,8.11,0,0,1,509.9,152V92a1,1,0,0,0-.95-1h-17.9a1,1,0,0,0-.95,1v60a8.11,8.11,0,0,1-13.84,5.74l-29.54-29.53a.94.94,0,0,0-1.33,0l-12.66,12.65a1,1,0,0,0,0,1.34l47.54,47.54a8.11,8.11,0,0,1,0,11.47l-47.54,47.54a1,1,0,0,0,0,1.34l12.66,12.66a.94.94,0,0,0,1.33,0l29.54-29.54a8.11,8.11,0,0,1,13.84,5.74v60a1,1,0,0,0,.95.94H509a1,1,0,0,0,.95-.94v-60a8.11,8.11,0,0,1,13.84-5.74l29.54,29.54a.94.94,0,0,0,1.33,0l12.66-12.66a1,1,0,0,0,0-1.34l-47.54-47.54a8.11,8.11,0,0,1,0-11.47l47.54-47.54A1,1,0,0,0,567.27,140.84Z"/></svg>