<svg id="Layer_1" data-name="Layer 1" xmlns="http://www.w3.org/2000/svg" viewBox="0 0 1000 1000"><title>Paideia Icon</title><path d="M651.33,452.81c6.45-.11,12.91-.23,19.35-.26,2.6.11,5.38.09,8.08.17,3.9.16,7.81.28,11.73,0,8.33-.36,15.06.68,21.25,3.62,4.21,2,8.55,3.76,12.88,5.52l8.16,3.38c2.91,1.22,5.84,2.46,8.79,3.59q0-13.89-.17-27.78c-.06-4.87-.34-9.73-.6-14.59-.11-1.82-.2-3.65-.3-5.46l-1.84.74c-2.86,1.18-5.74,2.34-8.57,3.61Q724,428.15,717.86,431l-10.05,4.58c-1.34.6-3.56,1.64-5.69,1.47a83.64,83.64,0,0,0-9.14.31,85.69,85.69,0,0,1-10.77.29c-6-.32-12-.31-18-.23l-7.49,0c-1.16.14-2,0-3.05.09a31.41,31.41,0,0,1-7.29-.2,44,44,0,0,0-21,1.35,5.25,5.25,0,0,1-3.58-.24c-.43-.15-.89-.35-1.36-.55a65.53,65.53,0,0,0-10.65-.21,106,106,0,0,1-12.09,0,44.72,44.72,0,0,0-6,.19c-1.81.12-3.61.28-5.47.25-8.9-.09-17.81-.28-26.73-.45l-5.7-.12v.3L516.4,438a7.9,7.9,0,0,1-4.38-.66c-.9-.48-3.72-2.22-4-5.19a95.33,95.33,0,0,1-.82-11.59c0-2.38.12-4.78.24-7.17.14-2.86.3-5.73.21-8.57s0-5.37.1-8.07.19-5.12.1-7.69c-.33-9.78-.27-19.58-.2-29.36l0-7.84c0-6.1,3.7-7.29,7.28-7.64l3.29-.3c3.24-.28,6.49-.56,9.69-1.08,3.52-.56,7-1.24,10.47-1.92,3.05-.6,6.08-1.21,9.15-1.72,8.94-1.52,18.43-4.5,29.9-9.38,1.7-.73,3.44-1.42,5.17-2.12,6.72-2.69,13-5.23,18.14-9.8A11.63,11.63,0,0,1,603,316.4c1.32-.78,2.16-1.24,3-1.71a28.69,28.69,0,0,0,4.41-2.81c4.24-3.56,8.31-7.34,12.35-11.12l.79-.74c1.89-1.77,3.66-3.69,5.38-5.64l2.43-2.69a45.79,45.79,0,0,0,5.63-6.93c5.59-9.29,9.69-17.33,11.56-26.35a28.17,28.17,0,0,1,1.6-4.8,27.08,27.08,0,0,0,1.1-3.09,60.72,60.72,0,0,0,1.84-21,48.1,48.1,0,0,1,0-7,42.52,42.52,0,0,0,.07-5.41,59.67,59.67,0,0,0-1.94-11.57,207.25,207.25,0,0,0-7.34-22.41,67.82,67.82,0,0,0-8.19-13.65c-7.12-9.69-14.44-17.12-22.39-22.73l-1.57-1.08a72.85,72.85,0,0,1-7.83-6c-2.49-2.3-5.6-3.84-8.88-5.46-2-1-3.94-1.95-5.81-3.08a21.37,21.37,0,0,0-4-1.69l-1.49-.52c-2.24-.84-4.47-1.74-6.69-2.62-4.41-1.77-8.59-3.44-13-4.72-1.85-.56-3.7-1.26-5.52-2a51.19,51.19,0,0,0-5.89-2,6.29,6.29,0,0,0-1.39,0,10.09,10.09,0,0,1-4.95-.89c-3.33-1.79-7.15-2.34-11.18-2.93L531,113a123.89,123.89,0,0,0-16.49-1.87c-9.64-.2-19.33-.13-29,0l-10.67.07,2.78,6.3c2.95,6.69,5.89,13.38,8.93,20.05,4.64,10.28,4.78,10.9,4.83,22.35l.12,26.08q.14,30.47.23,60.9c0,4.75-.08,9.5-.17,14.27l-.14,8.92c0,1.93.08,3.83.2,5.74.11,1.39.25,2.8.39,4.21a84.23,84.23,0,0,1,.57,8.82c0,6.15-.18,12.31-.35,18.47l-.23,8.77c0,.9,0,1.8,0,2.68,0,1.19.06,2.37,0,3.56-.22,5.87-2.87,7.31-7.37,7.8-3.27.39-6.57.84-9.82,1.46a90.94,90.94,0,0,0-26.29,9.36l-3.5,1.88a106.9,106.9,0,0,0-12.45,7.3c-10.62,7.6-18.23,14.74-23.94,22.49-3.53,4.8-6.82,9.8-10.1,14.79l-2.44,3.7a9.24,9.24,0,0,0-.73,1.9l-.29,1c-.78,2.29-1.75,4.54-2.74,6.76-1.6,3.61-3.1,7-3.56,10.64a10.21,10.21,0,0,1-1.82,4.27,9.76,9.76,0,0,0-.68,1.18c-1.22,5-2.21,10.14-3.15,15.26-.76,4-3.46,6.44-7.23,6.44-2.17,0-4.34-.14-6.5-.29l-1.95-.13c-.52,0-1.07-.09-1.61-.17a3.7,3.7,0,0,0-1.49-.11c-1.81.08-3.59.2-5.37.33-2.83.2-5.68.38-8.52.42-16.64.14-33.29.17-49.93.18a14.92,14.92,0,0,1-5.48-1c-5.22-2-10.42-4.13-15.6-6.31-4.63-2-9.24-3.94-13.86-5.93l-7.15-3.07c.05,1,.09,2,.16,3,.12,2.16.24,4.31.27,6.46.08,9.53.11,19.07.14,28.6l0,9.52v.84c.73-.26,1.44-.54,2.17-.81,2.87-1.06,5.73-2.13,8.5-3.38,3-1.37,5.9-2.84,8.82-4.31s6-3.05,9.12-4.44,6.76-2.94,10.63-3.19c4.18-.29,8.43-.19,12.67-.08,5.88.13,11.75.14,17.66-.09,1.93-.08,3.88-.22,5.82-.36a106.63,106.63,0,0,1,11.36-.38c10.62.48,19.74.85,28.92-.44a10.46,10.46,0,0,1,1.42-.12,5.89,5.89,0,0,1,5.83,3.92l.61,1.45a19.29,19.29,0,0,1,1.61,5,95.25,95.25,0,0,0,7.2,25.9c1.2,2.68,2.63,5.25,4.05,7.82,1.29,2.35,2.57,4.69,3.72,7.1a75.08,75.08,0,0,0,14.92,20.82c2,2,4.13,3.84,6.27,5.71a110.61,110.61,0,0,1,8.5,8c3.73,4.06,8.79,6.61,13.69,9.09l3.26,1.67c7.18,3.67,13.94,7.15,21.51,8.47,2.48.43,4.94.93,7.4,1.42,4,.81,8,1.61,12.06,2.12a9.6,9.6,0,0,1,6.05,3.46,10.93,10.93,0,0,0,.93.88l2,3.39-2.1,4.21A6.79,6.79,0,0,0,493,576a8.45,8.45,0,0,0-.09,2.17l.31,5c.24,3.73.48,7.46.54,11.19a40.68,40.68,0,0,1-.39,5.5,40.12,40.12,0,0,0-.32,4.24c0,8.68.1,17.39.21,26.09l.09,7.82c.07,6.24,0,12.46-.15,18.68-.17,8.81-.34,17.93.06,26.85.2,4.53.17,9.1.16,13.65l0,6,.06,6c.05,4.55.11,9.12-.06,13.67-.12,3.53,0,7,.11,10.57.09,2.88.19,5.78.15,8.67-.15,17.91,0,35.8.05,53.71l.16,30.3c0,6.75.07,13.51,0,20.27a17.87,17.87,0,0,1-1.21,7c-5,11.89-10.17,23.7-15.32,35.54l48.64-.2-6-13.82c-3-6.78-5.92-13.58-8.83-20.37a20.48,20.48,0,0,1-1.7-7.26c-.12-3,0-5.93.09-8.9a77.3,77.3,0,0,0-.12-11.21,65.49,65.49,0,0,1-.22-9.09l0-3.68,0-6.13c0-4.91,0-9.83-.12-14.74-.11-4.19-.31-8.37-.53-12.55l-.37-7.74a19.48,19.48,0,0,1,.12-2.85l.35-3.31a34.77,34.77,0,0,0,.32-4.2L509,731.31c0-14.48-.11-29-.11-43.48,0-3.56.24-7.13.47-10.71l.29-4.83c.05-.9.05-1.84,0-2.75l-.06-3.46c0-2.6-.08-5.21-.33-7.8a162.81,162.81,0,0,1,0-32.52,7.19,7.19,0,0,0-.08-1.07l-.32-3.22a46.3,46.3,0,0,1-.37-6.09c0-2,.2-4,.37-6a63.41,63.41,0,0,0,.36-6.59c-.08-6.55-.42-13.08-.76-19.63l-.16-2.74a6.41,6.41,0,0,0-.26-1.24,12.26,12.26,0,0,1-.56-3.2,10,10,0,0,1,.39-2.64,9,9,0,0,1,.62-6.88,9.5,9.5,0,0,1,6.61-4.63l2.78-.5c3.87-.68,7.76-1.36,11.55-2.3a32,32,0,0,0,4.2-1.54,41.28,41.28,0,0,1,4.73-1.73c6.27-1.78,12.88-3.82,18.67-7.65.56-.38,1.1-.83,1.66-1.27A19.82,19.82,0,0,1,563,544c4.65-2.07,8.66-5.34,12.36-8.53,10.33-8.87,17.8-17.32,23.52-26.58,5.32-8.62,9.41-16.05,12.1-24.16l.7-2.1c2.49-7.45,4.84-14.48,4.55-21.94,0-1.34-.14-3.82,1.62-5.66s4.32-1.91,6-1.94c3.07,0,6.13-.06,9.2-.06ZM400.24,429.25a43.55,43.55,0,0,1,.93-5.52c3.59-14.18,8.45-25.12,15.32-34.47,3.56-4.83,7.5-9.43,11.41-14l3.38-4a14.76,14.76,0,0,1,3.46-2.79c2.74-1.76,4.77-3.2,6.8-4.66,5.23-3.73,10.66-7.6,17-10,5.19-2,10.5-3.62,15.82-5.25l6.33-2a15.8,15.8,0,0,1,3.42-.66,7.1,7.1,0,0,1,5.9,1.58c1.75,1.62,2,3.84,2,5.79.06,4.92.08,9.86.09,14.79l0,6.32h0l.25,54.86c0,.9,0,1.36,0,1.79-.23,3.33-1.25,7.11-7.32,7.11a30.08,30.08,0,0,1-3.14-.2c-.81-.08-1.54-.05-2.45-.16h-6.1a141.52,141.52,0,0,0-15.43.48,141.36,141.36,0,0,1-14.82.79c-1.54,0-3.09,0-4.64-.08-6.79-.24-13.59-.34-20.38-.41l-9.79-.16a19.47,19.47,0,0,1-3.12-.2,6,6,0,0,1-5.25-6.92Zm90.59,114a6.43,6.43,0,0,1-4.57,1.53c-.71,0-1.43-.06-2.09-.12-7.65-.63-16.32-1.36-24.23-5.9-2.13-1.22-4.3-2.37-6.48-3.51a97,97,0,0,1-14.66-8.87,95.23,95.23,0,0,1-19.69-20.23c-5.85-8.33-9.72-15.16-12.55-22.14s-5.41-13.71-6.06-21.2c-.41-4.93.5-7.77,6.47-8.8a66.46,66.46,0,0,1,10.81-.74c1.38-.46,3,.17,4.49.34a32,32,0,0,0,3.23.28c10.06.19,20.28.28,30.22.29,5.8,0,11.59-.13,17.38-.27l8.75-.19c.77,0,1.48,0,2.23,0,6.28.13,8.25,2,8.42,8.15.09,3.59.09,7.16.11,10.74l.12,30.86h-.05l0,6.6c0,8.82.08,17.64.08,26.47C492.81,538.77,492.81,541.38,490.83,543.21Zm16.53-409.62.17-1.06a5.94,5.94,0,0,1,7.09-5.15c1.81.28,3.57.6,5.34.94a92.74,92.74,0,0,0,9.92,1.49,84.85,84.85,0,0,1,15.77,3.1,106.09,106.09,0,0,0,10.53,2.39,43.43,43.43,0,0,1,14.33,4.56c2.59,1.39,5.22,2.72,7.87,4,7.25,3.69,14.78,7.49,21.57,12.63a137.27,137.27,0,0,1,12.8,10.82c11.32,11,17.43,24.47,21.94,36.25a30.62,30.62,0,0,1,1.53,8.46l.23,2.72c.47,5.53.95,11.07,1,16.59.16,9.28-2.3,17.85-4.84,25.84-.67,2.12-1.46,4.18-2.26,6.25l-.81,2.14a13,13,0,0,1-1.54,3.2L627,270.27c-6.62,9.13-13.49,18.59-23.18,25.8A165.61,165.61,0,0,1,579.29,311c-13.89,7-29.27,11.76-48.4,15l-2,.34A86.17,86.17,0,0,1,514.59,328h-.25c-3.24,0-6.52-.82-6.89-6.34-.08-1.15-.09-2.31-.09-3.45l-.37,0,.46-7.48c.23-2,.48-4,.67-6a17.87,17.87,0,0,0,.07-3.27c-1.28-11.42-1.13-22.92-1-34.05.1-6.74.17-13.45,0-20.17a19.94,19.94,0,0,1,.29-3.53l.19-1.5a26.51,26.51,0,0,0,.2-4c-.08-1.52-.22-3-.36-4.52-.25-2.48-.46-5-.48-7.43q-.27-43.21-.32-86.41A37.46,37.46,0,0,1,507.36,133.59Zm92.75,329.16a169.9,169.9,0,0,1-4.48,16.72C591.36,493,583,504.2,575.48,513.65a33.83,33.83,0,0,1-4.86,4.64l-3.51,2.94a110.93,110.93,0,0,1-10.16,8c-12.8,8.56-25.62,13.78-39.19,16a13.94,13.94,0,0,1-2.25.17l-.32,0-1.1,0-.91-.12c-.81-.09-1.58-.19-2.36-.33a15.2,15.2,0,0,1-1.74-.43l-2.74-3.76,1.9-3.92c0-6.92-.06-13.94-.09-21L508,487c0-2.25,0-4.49,0-6.74l.42-14.7a23.1,23.1,0,0,0-.16-3.42c-.28-1.95-.37-4.28,1.18-6.16s3.85-2.3,5.91-2.43a5.64,5.64,0,0,1,2,.07,67.23,67.23,0,0,0,13.7.06c3.41-.2,6.74-.38,10.23-.29,5.51.19,11,.11,16.55.05l15.08-.11c6.36,0,12.66,0,19-.05,2.25,0,5.34,0,7.25,2.34C601,457.75,600.59,460.41,600.11,462.75Z"/></svg>