<svg id="Layer_1" data-name="Layer 1" xmlns="http://www.w3.org/2000/svg" viewBox="0 0 1000 1000"><title>SBH Icon</title><path d="M209.08,111V489.8c0,113.71,20.57,196,64.73,259.05C319.7,814.34,393.71,860.21,500,889c106.35-28.81,180.4-74.71,226.27-140.24,44.1-63,64.65-145.29,64.65-259V111ZM633.62,223c5.2-5.21,22.21,3.36,38,19.13s24.34,32.78,19.14,38l-21.63,21.62c5.2-5.2-3.36-22.21-19.13-38s-32.78-24.34-38-19.14Zm-43.26,43.25c5.21-5.2,22.21,3.36,38,19.13s24.34,32.79,19.13,38L625.85,345c5.06-5.05-2.89-21.22-17.78-36.59a7.74,7.74,0,0,0-1.62-1.66c-15.7-15.6-32.54-24.05-37.72-18.87Zm-14.94,62.4.09.08a16.63,16.63,0,0,0,3.84-10.35c-2.8-4.46-3.79-8.23-2.22-9.8,0,0,.07-.05.11-.08h0c2.66-2.34,10.84,1.81,18.46,9.41a7.92,7.92,0,0,0,.89.94c7.19,7.48,11,15.31,8.57,17.76-1.58,1.58-5.35.58-9.83-2.23A16.55,16.55,0,0,0,585,338.22l-28,28H547.5v-9.43l28-28Zm-165.36-62.4,21.63,21.63c-5.18-5.18-22,3.27-37.72,18.87a7.74,7.74,0,0,0-1.62,1.66C377.46,323.78,369.51,340,374.57,345l-21.63-21.63c-5.21-5.2,3.36-22.21,19.13-38S404.85,261.05,410.06,266.25Zm13.23,42.33c1.57,1.57.58,5.34-2.22,9.8a16.57,16.57,0,0,0,3.84,10.35l.09-.08-.09.09,28,28v9.43h-9.54l-28-28a16.55,16.55,0,0,0-10.32-3.85c-4.48,2.81-8.25,3.81-9.83,2.23-2.46-2.45,1.38-10.28,8.57-17.76a8.82,8.82,0,0,0,.89-.94c7.62-7.6,15.8-11.75,18.46-9.41h0S423.26,308.54,423.29,308.58Zm-94.47-66.45c15.77-15.77,32.77-24.34,38-19.13l21.63,21.62c-5.21-5.2-22.21,3.36-38,19.14s-24.34,32.78-19.13,38l-21.63-21.62C304.48,274.91,313,257.9,328.82,242.13Zm27.44,323.54-25.61,25.61c-.86.87-3.69-.56-6.31-3.18s-4-5.44-3.18-6.31l25.61-25.61c1.09-.45,3.69,1,6.12,3.38S356.72,564.58,356.26,565.67Zm7.87-17.36c-2.42-2.42-5-3.83-6.11-3.37l84.37-84.37H453V469l-85.45,85.46C368,553.34,366.56,550.74,364.13,548.31Zm94.25,166.05a20.81,20.81,0,1,1,20.81-20.81A20.81,20.81,0,0,1,458.38,714.36ZM500,786.21a20.81,20.81,0,1,1,20.81-20.81A20.81,20.81,0,0,1,500,786.21Zm41.62-71.85a20.81,20.81,0,1,1,20.81-20.81A20.81,20.81,0,0,1,541.62,714.36ZM634.88,548.2c-2.42,2.42-3.83,5-3.37,6.11L547.19,470v-9.55h9.42L641,544.82C639.91,544.37,637.31,545.77,634.88,548.2Zm39.74,39.74c-2.62,2.62-5.44,4-6.31,3.18L642.7,565.51c-.45-1.09.95-3.69,3.38-6.12s5-3.83,6.11-3.37l25.61,25.61C678.67,582.49,677.24,585.32,674.62,587.94ZM732.93,447l-19.38,19.39L694.16,447l-160.34,0V607.43l19.39,19.39-19.39,19.39-19.39-19.39H485.84l-19.39,19.39-19.39-19.39,19.39-19.39V447.08l-160.61,0h0l-19.4,19.39-19.38-19.39,19.34-19.34V399.09l-19.34-19.34,19.38-19.39,19.39,19.39,160.61,0V217.63l-19.39-19.39,19.39-19.39L485.8,198.2h28.66l19.36-19.35,19.39,19.39-19.39,19.39V379.7l160.34,0h0l19.39-19.39,19.38,19.39L713.58,399v28.66Z"/></svg>