<svg id="Layer_1" data-name="Layer 1" xmlns="http://www.w3.org/2000/svg" viewBox="0 0 1000 1000"><title>Spero Icon</title><path d="M540.43,636.14a916.9,916.9,0,0,0,134.86,15.91,3.81,3.81,0,0,0,4-4.26L665.48,540.86a4.64,4.64,0,0,0-7.42-3.1l-119.29,91A4.16,4.16,0,0,0,540.43,636.14Z"/><path d="M236,487.37l461.6-112.09a10.1,10.1,0,0,0,6.91-5.9l7.29-17.48a3.38,3.38,0,0,0-3.12-4.69H125.21a4.23,4.23,0,0,0-3.66,6.3A549.35,549.35,0,0,0,226.74,485,10.14,10.14,0,0,0,236,487.37Z"/><path d="M291.39,536c50,33.86,107,60.89,170.46,80.45a10.15,10.15,0,0,0,9.11-1.63l190.09-145a10.14,10.14,0,0,0,3.18-4.12l10.35-24.79a3.89,3.89,0,0,0-4.51-5.29L293,527.2A4.92,4.92,0,0,0,291.39,536Z"/><path d="M766.25,356.83l-53.88,129a10,10,0,0,0-.69,5.16L732,648.9a4.47,4.47,0,0,0,4.73,3.88A154.39,154.39,0,0,0,879,498.87c0-68.87-45.11-125.39-107.37-144.59A4.46,4.46,0,0,0,766.25,356.83Z"/></svg>