<svg id="Layer_1" data-name="Layer 1" xmlns="http://www.w3.org/2000/svg" viewBox="0 0 1000 1000"><defs><style>.cls-1{opacity:0.96;}</style></defs><title>Swiftwater Icon</title><g class="cls-1"><path d="M181.42,542.69c0,.65,0,1.3,0,1.95C181.44,544,181.44,543.3,181.42,542.69Z"/><path d="M178.58,533.13a22,22,0,0,1,2.84,9.56C181.32,539.18,181.51,535.07,178.58,533.13Z"/><path d="M395.22,572.09a29,29,0,0,0,3.37-6.46c.94-2.41-1.08-5.37-3.3-5.23a10.21,10.21,0,0,0-1,.1l-.27,0c-.2,0-.42.07-.6.12l-.28.1-.45.17-.26.16a2.56,2.56,0,0,0-.35.22c-.08.06-.15.15-.23.22a2.54,2.54,0,0,0-.29.28c-.07.09-.13.2-.2.3a3.07,3.07,0,0,0-.24.35c-.07.11-.13.25-.2.38s-.14.27-.21.43-.12.31-.18.46-.12.29-.18.45a15.62,15.62,0,0,1-1.18,2.48l-.28.5c-2.41,4.23-4.8,8.47-7.29,12.66-2.75,4.62-5.57,9.2-8.4,13.77-2.25,3.62-4.55,7.2-6.85,10.78a90.59,90.59,0,0,1-9.44,12.71c-.6.65-1.19,1.32-1.77,2l-.38.45a22.24,22.24,0,0,0-1.58,2.17c0,.06-.1.12-.14.19s-.12.25-.19.38-.29.45-.41.69a6.18,6.18,0,0,0,.24,6,4.5,4.5,0,0,0,1,1.22l0,0h0l0,0a7.27,7.27,0,0,0,.94.62c.2.12.39.29.61.4a9.75,9.75,0,0,0,1.11.41,6.32,6.32,0,0,0,.61.22,10,10,0,0,0,1.24.23c.19,0,.38.09.57.11.62.08,1.24.12,1.85.15a2.75,2.75,0,0,0,1-.13,3.36,3.36,0,0,0,.93-.46,5.53,5.53,0,0,0,.83-.78l.14-.15.15-.17.44-.52.3-.36,0,0,.42-.45h0a11.81,11.81,0,0,0,1.5-1.94l.09-.12c.61-1,1.24-2,1.87-3,.33-.52.65-1,1-1.56.92-1.43,1.86-2.85,2.78-4.28.6-.91,1.18-1.83,1.76-2.75l1.06-1.67c.91-1.47,1.81-3,2.66-4.49,4.75-8.53,9.55-17,12.12-26.47A33.17,33.17,0,0,1,395.22,572.09Z"/><path d="M376,410.75a20.62,20.62,0,0,0-8.19-6.35c-.56-.22-1.86-1.42-.24-1.87a3.73,3.73,0,0,0,2.82-4.52c-.57-3-5-4.72-7.92-3.34-7.58,3.55-8.5,4.09-16.62.25a4.6,4.6,0,0,0-5.21,1.13c-1.1,1.27-1.19,3,.1,4.69a8.16,8.16,0,0,0,2.71,1.94c1,.57-.63,2.84-1.08,3.25a47.31,47.31,0,0,0-4.31,4.05,8.86,8.86,0,0,0-1.74,3.8,3,3,0,0,0,3.23,3.64,10.93,10.93,0,0,0,3.87-.59c.82-.32,1.9-1.9,4.55-3.54a2.67,2.67,0,0,0,1.7,1.27c2.22.52,4.08,2.61,6.75,2.61,2,0,4.81-1.92,7.07-2.49a2.77,2.77,0,0,0,1.94-1.84c4,2.29,7.51,5.08,8.7,5.34a3.16,3.16,0,0,0,3.76-4.29A10.61,10.61,0,0,0,376,410.75Z"/><path d="M849,92.29A4.67,4.67,0,0,0,842.15,91C688.35,210.68,573.48,330.4,480.86,467.51c-.92-1.17-1.65-2.2-2.49-3.08-1-1.07-7.83-6.5-11.77.12-3.2,6.25-5.82,12.62-2.77,20-.94,0-3,3.15-4.83,1.87S444.21,464.34,440.13,457a116.47,116.47,0,0,0-14.24-20.13c-3.77-4.32-8.15-7.91-12.43-11.66-1.85-1.63-18.68-9.49-18.6-10.44q.45-5.38.75-10.77c.18-3.31.43-6.62-.77-9.86a4.17,4.17,0,0,1,.37-3.05,5.94,5.94,0,0,0,.67-3.75c-.24-2.25-.69-4.48-1-6.72-.15-1.09.88-5.93,2.85-6.18l0-.22a318.84,318.84,0,0,0,62.36-3.87,4.63,4.63,0,0,0-.56-9.25s-50.09.41-63.91.48l-1.46-8.75c-2.06-9.78,2.33-19.89.51-24.71-5.78-24.31-61.26-14.42-69.5-4.63-6.38,5.57-8.23,21.51-8.45,35.35a365.49,365.49,0,0,1-56.47,9.51,4.62,4.62,0,0,0-3.8,5.33h0a4.63,4.63,0,0,0,5.33,3.81,312.84,312.84,0,0,0,55.19-5.37c.31,5.87.8,9.83,1,9.87.68,4.37.63,5-.28,7.21-1.63,4-3.34,7.94-4.13,12.2a51.12,51.12,0,0,1-1.65,5.84c-.95,2.81-1.59,5.64-.82,8.63.16.62.21,1.28.32,2a35.61,35.61,0,0,0-4.86,3.48c-1.92,1.93-3.9,1.87-6.22,1.1a14.22,14.22,0,0,0-4.57-.67,19,19,0,0,0-5.14,1c-3.63,1.31-7.19,2.84-10.72,4.42-5.86,2.62-11.72,5.27-17.5,8.07-4.68,2.26-9.38,4.54-13.83,7.19-4.92,2.93-9.71,6.11-13.36,10.77a8.47,8.47,0,0,1-1.27-.82c-2.75-2.59-5.4-5.3-8.24-7.79a49.7,49.7,0,0,0-7-5.31c-1.5-.9-6.89-6.59-8.43-8.25-.82-.88-7-.45-8.89-.43a1.07,1.07,0,0,0-.53.19l3.66,3.17-6.07,7-2-1.78c-1,2.57-2,5.12-2.85,6.72L187,440.84c1.08-1.43,2.08-4.43,2.88-7.28l-4.4-3.81,6.06-7,2.83,2.45a11.69,11.69,0,0,1,.87-1c1.37-1.29,2.83-2.48,4.23-3.74,2.17-2,7.77-4.45,7.58-8.12-.31-5.73-7.43-11.29-12.82-13.31-4-1.5-7.4.41-8.84,4.53a4.28,4.28,0,0,1-.61.86c-1-1.19-2-2.31-3-3.41a10.68,10.68,0,0,0-11.7-2.7c-1.91.82-3.77,1.76-5.64,2.67s-3.43,2.3-3.47,4.73a12.33,12.33,0,0,1-.5,2.43c-2.94.68-4.68,39.68,9.54,39.31,3.15,4.68,1,52.57.88,58.73a3.12,3.12,0,0,1-1.36,2.58c-20.31,21.56-17.16,48.55-15.74,57.64,1.06,6.76,6.52,34.47,6.77,35.65,1.52,7.39-9.57,49.44-10,51.57-.15.79-.33,1.9.07,2.43a5.78,5.78,0,0,0,5.6,2.46c1.8-.2,6.57-9.53,9.46-11.58,2.14-1.53,4.45-2.83,6.64-4.29,1.28-.86,4.73,2,5,3.31.8,4.13,9.71,3.26,10.26-.62.39-2.78-4.9-14.36-6-18.13-1.4-4.72-6.71-18.69-6.52-19.11,8.16-6.53,12.67-31,13.86-33.48,2.19-4.51,5.11-45.83-8.8-59a7.33,7.33,0,0,1-1.72-5.16c.12-5.3.19-10.6.28-15.9.16-9.68,1-34.79,1.38-38.27,1.75,2.46,4.23,2.07,3.08,7-.58,2.51,5.92,13.71,11.81,17.49.73.47,1.57.71,1.56,1.78,0,3.17,2.12,4.87,4.33,6.59,1.94,1.51,4.11,2.89,5.57,4.8,2.91,3.82,5.45,7.93,8.07,12,2,3.1,4,6.1,7.38,7.95a34.26,34.26,0,0,1,5.19,3.59c4.4,3.57,9.35,3.07,14.3,1.92,1.86-.43,3.55-1.6,5.31-2.42A95.07,95.07,0,0,0,263,506.73c5.65-4.23,11.71-7.92,17.08-12.55,1.06-.92,3.73-3.68,3.59-2.28-1.13,11.18-4.54,118.56-5.38,124.25-.72,4.93-15.93,88.31-15.7,93.82.26,6.32,7.8,18.83,9,21.11a13.13,13.13,0,0,1-1.41.84,6.2,6.2,0,0,0-3.68,5c-.31,2-4.66,42.43-3.46,49,.73,2.72,5.27,7.8,5.23,8.9-.07,2.34-2.69,5.24-2.85,7.57-.31,4.5-.57,11.8,0,16.22.32,2.43,5.2,3.94,7.75,4.7.66.2-.16,5.6.67,8,.33,1,3.5,18.45,4.15,26.27a47.89,47.89,0,0,1-.24,6.12c-1.78,0-13.47,2.26-14.87,2.25-4.16,0-12-3-12.06-3-3.39-1.19-12.66,4.87-16,8.47-3,2.5-4.22,21.1-2.76,23.82a20.35,20.35,0,0,0,6.74,7.25c.38.26,20.25,5.41,26.41,5.24,6.7-.18,32.16-7.74,45.68-8.94,2.28-.2,9-5.06,10.27-6.3,1.84-1.74-.39-23.26.34-30.66.32-3.21,3.33-22.89,4.21-29.55.56-4.2.85-8.44,1.3-13.1,1.66-1.57,6.12-1.2,8.44-6.45,1.22-2.77,2.76-15.85,3.28-19,.14-.8,8.79-5.51,11.59-12.65,1-2.45-2.94-7.23-2.89-7.92.1-1.41,1.39-14.43,1.94-19.52.64-6,1.38-12,2.13-18a20.46,20.46,0,0,1,.69-2.72l.63.1c.15,5.3.27,10.59.44,15.89s.15,10.45.61,15.64c.41,4.61,1.42,15.33,2.05,19.92a11.93,11.93,0,0,1-.68,7,46.12,46.12,0,0,1-3.09,6.07c-1.7,2.5-1,4.91-.21,7.32.4,1.22,2,2.13,3.63,2.75,2.38.91,4,6.25,4.13,8.78.28,4.23.66,10,.83,11.88a5,5,0,0,0,2.87,4.24,13.25,13.25,0,0,0,7.43,1.29c1.27-.08,2.55,0,3.75,0,1.22,4.39,2.38,8.58,3.55,12.77a50.79,50.79,0,0,1,1.36,23.5c-.38,2-1.76,9.6,1.39,11.56,3.72,2.32.76,6.88-.23,8.41a6,6,0,0,0,.84,7.34c1.95,2,25.62,13,30.64,12.67,4.55-.3,27.21-1.9,35.85-2.35,2-.1,5.77-6.83,5.91-9.14.13-1.79.48-22.55-16.31-31.63-6.76-3.09-17.06,0-18.34,0,.24-3.24,1.58-12.43,1.87-15.42.76-7.73,1.66-15.44,2.34-23.17.25-2.85.36-5.14.42-8,0-1.69,1.52-5.86,3.09-6.56,4.25-1.9,6.51-7.16,5.07-12.16-1.22-4.22-5.27-8.71-6.23-9.53,3.22-2.83,1.65-5.92.52-9.33-2.58-7.72-1.07-40.72-.39-44.53.59-3.26-1.82-10-2.32-11.07,1.58-4.05,6.31-27.29,6.19-33-.15-7.53-6-66.46-6.48-73.45-.43-6-.77-11.93-1.11-17.9a8.4,8.4,0,0,0,1.62.67c2.13.41,4.89-.31,8-2.12a46.67,46.67,0,0,0,11.91-10.59c7.14-8.65,12.11-20,7.27-24l-11.6-8.84a5.14,5.14,0,0,0-1.24-.72l5.69-8.68A27,27,0,0,0,461.05,553a17.7,17.7,0,0,0,16.1-10.41c5-8.9,9.38-16.88,13.3-26.78,2.32.41,4.2.23,5.11-1,1.07-1,12.57-20.32,13.63-22.7,1.65-3.68,4.62-19.05,2.69-21.75-1.78-2.49-6.39-3.82-10.24-4.48C674.34,424,793.3,297.59,845.92,99.81l1.72-1.36A4.83,4.83,0,0,0,849,92.29ZM192.08,406.71c3.32,0,4.34,2.31,5.86,4.57-1.09,2-2.68,5.54-4.59,5.7-2.32.19-4-1.26-5.36-4.74C188.45,409.6,191.58,407.62,192.08,406.71Zm-13.5,126.42c2.93,1.94,2.74,6,2.84,9.56,0,.61,0,1.27,0,1.95a169.64,169.64,0,0,1-1.54,19c-1.46,11.07-3.67,21.28-5.34,20.37-6.18.51-4.08-31.64-4.1-43.14C170.44,530.43,178.58,533.13,178.58,533.13Zm4.18-104.4c-2.2.43-4.28.89-6.37,1.23-1.44.24-3.73-1.64-4.69-3.62-1.71-3.51-1.91-7.28-2.08-11.07,0-1,.06-2.08.07-3.12,0-1.56,0-3.13,0-5.24.75-.91,2.42-1,3.95-1.29a3,3,0,0,1,3.57,2.07,48.2,48.2,0,0,0,3.83,8.15C183.82,420,183.93,424.27,182.76,428.73Zm291.73,42.52c9.22,5.9,8.7,13.88-1.85,10.53C469.34,480.77,470.11,470.22,474.49,471.25Zm-91.38-52.11c-3.58,1.78-4.27,2.62-2.06,5.88a18.53,18.53,0,0,1-6.86,6,4.78,4.78,0,0,1-1.9.5,13.81,13.81,0,0,0-6.45,1.89c-1.1.67-2.73.61-4.13.66-3.5.14-7,.13-10.5.25a13.13,13.13,0,0,0-3.37.49c-3.14,1-6.15.42-9.19-.45a8.17,8.17,0,0,1-4.36-3.48c-1.23-1.75-2.45-3.38-5-3.45,0-.23,0-.47-.07-.7.53-.63,1.05-1.26,1.59-1.88,1.88-2.12,2.38-5.6-1.38-7.14-1.57-.65-3.18-1.21-4.78-1.78-2.15-.77-2.51-1.37-2-3.61.95-4.24,1.94-8.47,2.88-12.72.25-1.1.37-2.23.51-3.09,1.91-1.41,3.59-2.78,5.39-3.95a52,52,0,0,1,14.18-6.32c9.27-2.62,18.72-2.08,28.15-1.68a18.86,18.86,0,0,1,8.14,2.31c.94.51,1.79,1.09,1.62,2.39a1.79,1.79,0,0,0,.13,1.11c1.44,2.19.76,4.45.5,6.79a21.12,21.12,0,0,0,.35,5.87,15.68,15.68,0,0,1-.53,8.1c-.34,1-.75,1.94-1,2.94C382.6,415.79,381.9,417.51,383.11,419.14Zm-48.44-83.31c-.09-5.1,12.59-11.83,15.93-14.2s17.43-3.1,19.85.82c13.92,16.84.21,10.07.51,15.44.67,2.35,11.91,7.08,12.57,8.41.9,1.83-1,7.29-2.79,7.55-3.89.57-7.95-.68-11.84-.1-1.57.23-7.42,1.48-13.9,2.55l-11.22-1.59c-.54-.11-6.51-1.47-7-1.37-1.14.34-2.27.65-3.41,1,.55-4.61,12.91-8.89,13.45-9.48C348.59,342.82,334.73,339.47,334.67,335.83ZM317.76,436.5c1.57,1.18,5.3,3.73,6.53,4.52a9.86,9.86,0,0,0,4.78,1.56c2.25.14,4.45.87,6.69,1.21,1.47.22,3,.17,4.46.31a6.27,6.27,0,0,1,2.16.8,14.76,14.76,0,0,0,7.87,1.63c4.53-.08,9.06-.41,13.59-.6a7.2,7.2,0,0,1,2.79.19c3.53,1.36,6.72.47,9.67-1.44,1.63-1.05,1.4-1,3.38-1,.43,2.41-1.11,19.35-3.89,28.31a6.88,6.88,0,0,1-5.33,4.75c-11.55,2.17-39.95,3.45-47.23-1C316.67,471.78,317.76,437.37,317.76,436.5ZM205.33,470c-3.4-3.25-5.26-7.53-8.66-10.48l9.45-19.44c2.51,1.62,3.95,4,5.56,6.35,0,7.15-4.39,19.34-5.19,21.76A9.5,9.5,0,0,1,205.33,470Zm32.23,38.88c-8.71-.41-28.94-24.46-30.2-26.74-.56-1-.75-1.69.1-2.47,3.54-3.25,5-7.73,6.89-11.92,1.66-3.76,3.39-12.77,4.82-16.9,4.83,5.8,22,17.9,23.79,19.51,3.47-.12,3.33-3.05,4.19-5.12-.68-2.27-3.64-2.59-4.06-5.21,11.65-9.65,41.65-22.18,47.75-25.38,2.34-1.23,2.43,2.15,2.43,4.85-3.65,13.78-4,22.45-9.46,35.86C281,475,245.86,509.26,237.56,508.88ZM372.31,816.23c-6.5-17.06,10.22-2.54,14.1-9.33,4.12-7.21-10-10.28-16-21.95-10.22-19.78-7.34-87.22-6.77-105.24a12.69,12.69,0,0,1,1.9-6.18c1.6-2.61,2.33-6.86-1.61-9.22-3.34-2.19-6.66,2.6-7.85,3.86-2.23,2.39-3.33,2.71-5.93,2s-5.09-.73-7.47,1.08c-1.32,1-2,2.12-1.65,3.6.82,3.76,2.49,47.1,1.39,54.78-.78,5.43-2.6,20.74-3.73,31.62a24.13,24.13,0,0,1-10.2,17.29c-3.34,2.34-6.39,4.42-7.23,5.06-1.54,1.17-10.5,4.3-10.37,7.13.2,4.5,4.72,6.68,6.69,6.43,3.09-.38,9.61-1,9.78-.86-.25.92-8,13.91-10.94,16s-41.43,9.83-31.5-11.8a5.55,5.55,0,0,0-.83-6.12c-11.63-12.32-10.09-63.74,27.44-35.11,4.89,3.74,11.78-9.65-.5-14.77-19.21-8-47.11-27.48-32.19-64.77,4.12-10.29,9.41-51.66,11.58-106.05.26-6.44,3.74-79.8,3.93-81.21.42-1.84,9.53-57,9.72-57.66,1.09-4.12,5.27-2.32,6.17-.65-1.24,11.65.13,47.75,4.64,52,3.68,3.47,47.42,2.8,63.21-.41a7.27,7.27,0,0,0,5.61-5.6c2.89-13.07,6.86-49.86,8.14-51.56,1-1.36,3.3,1.7,3.28,2.69-.16,7.2-.39,14.4-.59,21.61-.13,4.83-1.19,26.77-.2,28.47,3.5,6.06,3.78,12.3,5.14,19.1,1,5.1,13.09,65.44,12.12,67-1.7,2.71-18.78,26.75-21.68,32.73-2.6,9,6.32,12.77,13,7.24,2.12-2.27,6.06-8.73,8.43-12.73l1.57,1.29c0,2-.05,4-.05,4,.12,2.09,4.71,86.34,4.75,89.41.07,5-5.62,32.5-8.23,35.89-3.28,4.24-15.35,11.49-14.48,17.76,1.05,7.54,19-2,18.85-1.14-.91,7.7,1.32,10.87,2.09,18.54,0,0-1.63,18.1-7.42,22.5-1.54,1.16-6.12,5.27-4.57,9.71,1.3,3.76,6.73,2.72,8.62,3.29,1.29.38,8.45,3.16,8.64,6.78C419.23,814.49,376.71,827.75,372.31,816.23Zm47.61-271.72c-.21-3.88-.37-7.76-.58-11.64-.07-1.32-.59-9.2-.76-11.06,1.33.33,13.3,16.94,14.13,17.8-4.51,5.66-9.33,12-12,15.7C419.34,554.74,420,545.59,419.92,544.51Zm24.15,26.34c2,1.64.7,5.68-7,15-3.52,4.27-9.85-.15-6.48-4.23a48,48,0,0,0,7.75-12.87C441.24,567.15,443.12,570.07,444.07,570.85Zm-16.23-63.32c-3.5-8-6.78-16.16-10.26-24.2-1.62-3.72-10.56-16.71-13.26-21.24-1.93-4,.33-30.36.52-31.78,14.54,7.54,46.3,60,47.21,61.77-1.8.45-13.73,13.6-10.3,16.73,3.74,3.41,16.25-10.48,17-10.81a3.31,3.31,0,0,1-.51,3.86c-2.46,3.36-12.75,18-16.61,23.81C441.36,526.06,430,512.56,427.84,507.53Zm41.71,28.05c-1.11,2.46-4.29,6-6.93,6.51s-6-1.34-8-3.16l-2.91-2.4,19.22-29.3c.07-.13,4.85,2.78,10.24,5.28A102,102,0,0,1,469.55,535.58Zm28.73-53.73a43.05,43.05,0,0,1-5.76,11.94c-1.51,2-2.24,2.25-4.58,1.32-.7-.28-1.37-.63-2.07-.92s-1.39-.54-2.08-.8c-.77-3.16,5.94-16.45,5.64-17.25,1.54-.29,2.89-.58,4.24-.81s2.77-.42,4.09-.62C499.51,477.07,499.09,479.52,498.28,481.85ZM504,455.73C593.39,327,698.79,216.3,833.61,109.47,780.85,295.12,667.23,414.47,504,455.73Z"/><path d="M352.08,644.9c-21.17-11.2-35.61-27.57-44.17-50.06a4.63,4.63,0,0,0-6-2.69c-2.39.91-2.48,3.74-1.57,6.14,9.26,24.34,21.23,45.66,44.15,57.78a4.55,4.55,0,0,0,2.16.54c1.66,0,6.51-3.88,7.34-5.45A4.63,4.63,0,0,0,352.08,644.9Z"/><polygon points="185.49 429.75 189.89 433.56 196.37 439.17 198.43 440.95 204.49 433.94 200.83 430.77 194.38 425.19 191.55 422.74 185.49 429.75"/></g></svg>