<svg id="Layer_1" data-name="Layer 1" xmlns="http://www.w3.org/2000/svg" viewBox="0 0 1000 1000"><title>Woolly Icon</title><circle cx="364.08" cy="247.37" r="69.02"/><circle cx="129.02" cy="365.71" r="69.02" transform="translate(-56.91 25.39) rotate(-9.22)"/><circle cx="635.92" cy="247.37" r="69.02"/><circle cx="870.98" cy="365.71" r="69.02" transform="translate(199.8 1030.44) rotate(-67.5)"/><path d="M531.41,692.9a12.54,12.54,0,0,0,0,14.86l78.44,106.63a17.8,17.8,0,0,0,28.66,0c64.76-98.18,130.72-191.1,199.77-270.56a36.2,36.2,0,0,1,29.12-14.7h.38a6.34,6.34,0,0,0,6.34-6.34V487.66a6.34,6.34,0,0,0-6.34-6.34q-63.42,4.43-134,0a6.34,6.34,0,0,0-6.34,6.34v35.16a6.34,6.34,0,0,0,6.34,6.34H734a6.34,6.34,0,0,1,5.1,10.1L638.5,675.62a17.8,17.8,0,0,1-28.68,0l-26.68-36.42a7.57,7.57,0,0,0-12.22,0Z"/><path d="M672.73,429.39a36.85,36.85,0,0,1,29.71-15h0a6.34,6.34,0,0,0,6.34-6.34V372.85a6.34,6.34,0,0,0-6.34-6.34,1047.46,1047.46,0,0,1-134,0,6.34,6.34,0,0,0-6.34,6.34V408a6.34,6.34,0,0,0,6.34,6.34h.22a6.34,6.34,0,0,1,5.11,10.09l-68.85,94a6.33,6.33,0,0,1-10.22,0l-68.85-94A6.34,6.34,0,0,1,431,414.35h0A6.34,6.34,0,0,0,437.3,408V372.85a6.34,6.34,0,0,0-6.34-6.34c-42.82,4-87.63,3.72-134,0a6.34,6.34,0,0,0-6.34,6.34V408a6.34,6.34,0,0,0,6.34,6.34h.22a36.87,36.87,0,0,1,29.72,15L446,591.4a6.33,6.33,0,0,1,0,7.5l-56.16,76.67a17.8,17.8,0,0,1-28.68,0L260.56,539.26a6.34,6.34,0,0,1,5.11-10.1h.55a6.34,6.34,0,0,0,6.34-6.34V487.66a6.34,6.34,0,0,0-6.34-6.34h-134a6.34,6.34,0,0,0-6.34,6.34v35.16a6.34,6.34,0,0,0,6.34,6.34h0a36.23,36.23,0,0,1,29.13,14.7C230.69,623.24,297,714.7,361.11,814.42a17.8,17.8,0,0,0,28.66,0Q526.39,617.52,672.73,429.39Z"/></svg>